<?xml version="1.0" encoding="UTF-8" standalone="no"?>
<svg
   xmlns:dc="http://purl.org/dc/elements/1.1/"
   xmlns:cc="http://creativecommons.org/ns#"
   xmlns:rdf="http://www.w3.org/1999/02/22-rdf-syntax-ns#"
   xmlns:svg="http://www.w3.org/2000/svg"
   xmlns="http://www.w3.org/2000/svg"
   xmlns:sodipodi="http://sodipodi.sourceforge.net/DTD/sodipodi-0.dtd"
   xmlns:inkscape="http://www.inkscape.org/namespaces/inkscape"
   sodipodi:docname="logo.svg"
   inkscape:version="1.0beta1 (32d4812, 2019-09-19)"
   id="svg8"
   version="1.1"
   viewBox="0 0 157.81517 117.38666"
   height="443.66611"
   width="596.4668"
   inkscape:export-filename="/Users/tomevans/Desktop/logo.png"
   inkscape:export-xdpi="96"
   inkscape:export-ydpi="96">
  <defs
     id="defs2" />
  <sodipodi:namedview
     inkscape:object-nodes="true"
     inkscape:window-maximized="1"
     inkscape:window-y="23"
     inkscape:window-x="0"
     inkscape:window-height="1035"
     inkscape:window-width="1920"
     showgrid="false"
     inkscape:document-rotation="0"
     inkscape:current-layer="svg8"
     inkscape:document-units="px"
     inkscape:cy="480"
     inkscape:cx="400"
     inkscape:zoom="0.35"
     inkscape:pageshadow="2"
     inkscape:pageopacity="0.0"
     borderopacity="1.0"
     bordercolor="#666666"
     pagecolor="#ffffff"
     id="base"
     inkscape:snap-object-midpoints="true"
     inkscape:snap-center="false"
     inkscape:snap-nodes="true"
     inkscape:snap-others="true"
     inkscape:object-paths="true"
     units="px"
     fit-margin-top="0"
     fit-margin-left="80"
     fit-margin-right="0"
     fit-margin-bottom="0"
     inkscape:snap-global="false" />
  <metadata
     id="metadata5">
    <rdf:RDF>
      <cc:Work
         rdf:about="">
        <dc:format>image/svg+xml</dc:format>
        <dc:type
           rdf:resource="http://purl.org/dc/dcmitype/StillImage" />
        <dc:title></dc:title>
      </cc:Work>
    </rdf:RDF>
  </metadata>
  <g
     inkscape:groupmode="layer"
     id="layer5"
     inkscape:label="Layer 4"
     style="display:inline"
     sodipodi:insensitive="true"
     transform="translate(-30.085752,-28.210491)">
    <ellipse
       style="opacity:1;fill:none;fill-opacity:1;stroke:#f4d35e;stroke-width:7.9375;stroke-miterlimit:4;stroke-dasharray:none;stroke-opacity:1"
       id="path925"
       cx="110.44234"
       cy="86.903816"
       rx="55.221169"
       ry="54.724575" />
  </g>
  <g
     inkscape:groupmode="layer"
     id="layer4"
     inkscape:label="Layer 3"
     style="display:inline;opacity:1"
     transform="translate(-30.085752,-28.210491)">
    <path
       style="display:inline;opacity:1;fill:#2176ae;fill-opacity:1;stroke-width:0.264583"
       d="m 97.821214,133.75973 c -0.457877,-1.04304 -0.832511,-2.03333 -0.832511,-2.20064 0,-0.18544 -0.209979,-0.23757 -0.537784,-0.13353 l -0.537784,0.17069 0.536794,-0.88047 c 0.295238,-0.48425 0.537242,-1.10449 0.537784,-1.37831 7.94e-4,-0.43289 0.147736,-0.47818 1.125469,-0.34707 0.815486,0.10936 1.330672,0.38154 1.874851,0.99054 0.662017,0.74087 0.739897,1.00762 0.661457,2.26565 -0.10748,1.72368 0.38505,1.93856 1.01077,0.44099 0.60753,-1.45401 0.33923,-3.00162 -0.80332,-4.63374 -0.65476,-0.93532 -0.871487,-1.45339 -0.68572,-1.63916 0.44396,-0.44396 1.19022,0.22144 1.13329,1.01049 -0.0313,0.43448 0.0855,0.69036 0.31512,0.69036 0.54855,0 0.77336,-0.51145 0.92254,-2.09878 0.12257,-1.30427 0.2038,-1.4556 0.87748,-1.63473 1.00598,-0.26747 2.27312,0.21005 2.42981,0.91568 0.0695,0.31288 0.15806,1.03592 0.19684,1.60676 0.0881,1.29608 0.5528,1.48866 0.99811,0.41359 0.45654,-1.10218 0.006,-2.58036 -1.16456,-3.82162 -0.7513,-0.79661 -1.05771,-0.937 -2.04323,-0.93616 -0.6577,5.3e-4 -1.50412,0.21123 -1.95608,0.48685 l -0.79671,0.48586 0.0945,-0.99064 c 0.0704,-0.73856 -0.0466,-1.13176 -0.46006,-1.54519 -0.305,-0.30499 -0.44992,-0.55453 -0.32206,-0.55453 0.12787,0 0.37754,-0.35019 0.55482,-0.77819 0.41734,-1.00753 -0.0218,-2.43713 -0.980316,-3.19106 -0.804717,-0.63299 -1.393113,-0.52179 -2.717398,0.51354 -1.987425,1.55378 -2.752756,1.56905 -5.627505,0.11231 -1.948881,-0.98758 -2.307822,-1.78949 -2.309005,-5.15856 -7.94e-4,-2.45284 0.05835,-2.83047 0.462031,-2.94654 0.254662,-0.0732 0.685231,-0.22423 0.956821,-0.33556 0.434073,-0.17795 0.458076,-0.13567 0.198437,0.34946 -0.429408,0.80236 -0.391527,0.85126 0.659363,0.85126 0.886254,0 0.942819,-0.0474 0.78871,-0.66145 -0.206325,-0.82206 0.250491,-0.8859 0.473376,-0.0662 0.113274,0.41661 -0.0028,0.73222 -0.386754,1.05139 -0.641924,0.53365 -0.578766,1.34949 0.114813,1.48306 0.265972,0.0512 0.752885,-0.15986 1.082024,-0.46907 l 0.598437,-0.56221 0.474205,1.24169 c 0.455121,1.19171 0.455197,1.25559 0.0019,1.58705 -0.259768,0.18995 -0.604252,0.40012 -0.765516,0.46705 -0.448477,0.18613 0.406318,0.70622 1.029708,0.62651 0.307065,-0.0393 0.906301,-0.65263 1.427702,-1.46138 0.934699,-1.44981 1.865741,-1.96069 2.648146,-1.45308 0.255119,0.16552 0.406638,0.59956 0.383056,1.0973 -0.03261,0.68835 0.05834,0.82346 0.554305,0.82346 1.06707,0 1.55109,-0.85953 1.41413,-2.51117 -0.11329,-1.36614 -0.0784,-1.48043 0.49571,-1.62453 0.73087,-0.18343 1.45374,-0.0229 3.12767,0.69464 1.18458,0.50777 1.22911,0.5659 1.06488,1.39018 -0.0943,0.47314 -0.46095,1.43679 -0.81485,2.14144 -0.3539,0.70466 -0.64346,1.32973 -0.64346,1.38907 0,0.0593 0.28794,0.10787 0.63986,0.10787 0.37443,0 1.21314,-0.48935 2.02188,-1.17968 l 1.38204,-1.17968 0.74159,0.58437 c 1.07842,0.84977 1.10727,2.18708 0.0905,4.19363 -0.52231,1.03073 -0.56162,1.25996 -0.23736,1.38438 0.56374,0.21633 1.18387,-0.071 2.30759,-1.06901 2.11246,-1.87626 3.19395,-0.70022 2.12466,2.31042 -0.51795,1.45833 -0.3703,1.77619 0.65724,1.41482 0.55191,-0.19409 0.87766,-0.64038 1.38389,-1.89601 0.36415,-0.90319 0.87088,-1.84911 1.12607,-2.10203 0.42381,-0.42004 0.56126,-0.42623 1.5875,-0.0715 l 0.77389,1.20432 0.48197,1.03615 c 0.75608,1.62542 0.15514,1.84962 0.79375,1.78089 2.05283,-0.22093 1.28019,-3.05658 -1.62424,-5.961 -0.85292,-0.85292 -1.55076,-1.64572 -1.55076,-1.76179 0,-0.11606 0.17551,-0.35668 0.39003,-0.53471 0.32364,-0.2686 0.48702,-0.15932 0.95979,0.64196 0.35323,0.59867 0.73289,0.93252 0.99903,0.87844 0.61969,-0.1259 0.54084,-2.141 -0.112,-2.86238 -0.4246,-0.46917 -0.44039,-0.58373 -0.10967,-0.79557 1.25621,-0.80467 4.05901,-1.01367 5.26066,-0.39227 0.88294,0.45659 1.12594,1.17271 0.79248,2.33544 -0.35559,1.23985 -0.31873,1.29988 0.52889,0.86155 1.08197,-0.55951 1.26583,-1.63237 0.55517,-3.23949 -0.30882,-0.6984 -0.88254,-1.61291 -1.27492,-2.03224 -0.48329,-0.51649 -0.60601,-0.80123 -0.38043,-0.8827 0.18314,-0.0661 0.82586,-0.53207 1.42827,-1.03536 0.60241,-0.5033 1.28601,-0.87999 1.5191,-0.8371 0.23309,0.0429 0.68246,0.61378 0.99859,1.26862 0.47736,0.98884 0.60748,1.10691 0.76779,0.69665 0.37333,-0.95548 -0.21765,-1.85355 -1.72075,-2.61488 -1.54588,-0.783 -3.59472,-0.97735 -4.47932,-0.42491 -0.38927,0.2431 -0.78555,0.16496 -2.01276,-0.39687 -0.84044,-0.38477 -1.70311,-0.69957 -1.91705,-0.69957 -0.21395,0 -0.87583,0.41672 -1.47086,0.92604 -1.17386,1.00478 -1.388,1.06213 -2.45337,0.65707 -0.58849,-0.22374 -0.65241,-0.33528 -0.38013,-0.66334 0.50504,-0.60854 0.45449,-2.3823 -0.0849,-2.97828 -0.44928,-0.49645 -0.43966,-0.53292 0.26205,-0.9927 0.40066,-0.26252 1.27379,-0.52971 1.9403,-0.59375 1.12542,-0.10814 1.27217,-0.0477 2.05811,0.84743 l 0.84628,0.96386 v -0.82331 c 0,-0.5572 -0.24998,-1.07329 -0.77339,-1.596707 -0.66448,-0.66448 -0.97528,-0.773399 -2.20691,-0.773399 -0.78843,0 -2.01243,0.174229 -2.71999,0.387173 -0.70756,0.212945 -1.34113,0.33251 -1.40794,0.2657 -0.0668,-0.06681 0.0125,-0.415422 0.17616,-0.774695 0.28894,-0.634166 0.32493,-0.641815 1.2336,-0.262151 0.81083,0.338785 0.93597,0.340063 0.93597,0.0096 0,-0.630388 -0.78082,-1.213078 -1.62556,-1.213078 -0.43671,0 -2.07508,0.595313 -3.64083,1.322917 -1.56575,0.727604 -3.14687,1.322917 -3.51359,1.322917 -0.82304,0 -2.34545,-1.006097 -2.60237,-1.719792 -0.2845,-0.790345 0.14519,-1.651616 1.12061,-2.246119 l 0.86904,-0.52967 0.27693,1.122067 c 0.16739,0.678219 0.44859,1.155125 0.7109,1.20564 0.65021,0.125219 1.35725,-1.116439 1.13738,-1.997385 -0.29707,-1.190201 -1.19736,-2.438789 -1.88249,-2.610744 -0.73666,-0.184891 -0.88319,-1.256392 -0.28389,-2.075984 0.41236,-0.563946 1.14664,-0.452316 2.49378,0.379121 0.7164,0.442151 0.83655,0.647769 0.69892,1.19611 -0.18888,0.752578 0.17351,0.871204 0.78707,0.257641 0.719,-0.718995 -0.24289,-2.154786 -2.07169,-3.092358 -1.02064,-0.523253 -1.08754,-0.524922 -3.05213,-0.07622 -2.3734,0.54207 -3.01768,0.47375 -3.13267,-0.332197 -0.074,-0.51887 0.033,-0.592609 0.8599,-0.592609 1.07597,0 1.1856,-0.283882 0.39432,-1.021072 -1.10365,-1.028205 -3.256441,-0.849416 -4.733065,0.393081 -0.675566,0.568452 -0.96502,0.646999 -1.839677,0.499229 -2.519225,-0.425622 -4.383286,-2.478545 -6.432524,-7.084256 -0.902425,-2.028229 -1.091065,-2.743276 -1.108263,-4.200927 -0.01656,-1.403223 0.08574,-1.875118 0.508445,-2.345467 0.685387,-0.762646 1.591379,-1.099566 2.406592,-0.894961 0.999111,0.250761 1.23676,0.947674 0.775113,2.27304 -0.536673,1.540754 -0.525058,1.578682 0.454477,1.484035 1.082294,-0.104577 1.625174,-1.112393 1.631852,-3.029413 0.0035,-0.997267 0.09528,-1.324255 0.344914,-1.228463 0.187097,0.0718 0.340177,0.01786 0.340177,-0.119883 0,-0.137731 0.299514,-0.386887 0.665583,-0.55368 0.526984,-0.240109 0.881983,-0.216675 1.704766,0.112538 1.14844,0.459515 1.327693,0.849005 1.022829,2.22245 -0.113054,0.509322 -0.208394,1.312994 -0.211865,1.785937 -0.0054,0.730795 0.08813,0.859896 0.62275,0.859896 1.273096,0 1.705066,-1.413992 1.218976,-3.990179 -0.40239,-2.132573 -0.22471,-2.508165 1.27009,-2.684864 0.67751,-0.08009 1.07485,0.0083 1.27881,0.2844 0.25507,0.345316 0.34094,0.316434 0.62231,-0.209298 0.47812,-0.893382 -0.34727,-1.868033 -2.14101,-2.528184 -1.08806,-0.400436 -1.41523,-0.641805 -1.34489,-0.992187 0.13208,-0.657953 0.58294,-0.578427 1.98472,0.350067 2.14388,1.420048 4.30221,4.425463 4.50439,6.272234 0.11841,1.081677 0.3226,1.282475 0.85491,0.840703 0.55789,-0.463008 0.35615,-1.54364 -0.85855,-4.598961 -0.89233,-2.24444 -0.9151,-2.378851 -0.45952,-2.711979 0.26364,-0.192776 0.69396,-0.350502 0.95628,-0.350502 0.48213,0 1.9109,1.734804 2.21319,2.687246 0.25256,0.79574 0.7713,0.423246 0.86037,-0.617807 0.0679,-0.793578 -0.0674,-1.061599 -0.90908,-1.800588 -0.54387,-0.477525 -1.55452,-1.103307 -2.24588,-1.390623 -0.93127,-0.38702 -1.37129,-0.763186 -1.69794,-1.45156 -0.42406,-0.89363 -0.41985,-0.950233 0.11004,-1.480127 0.41307,-0.413071 0.96622,-0.574326 2.21016,-0.644305 2.87914,-0.161973 4.34416,1.050285 4.02772,3.332824 -0.15363,1.108138 -0.13756,1.141835 0.45591,0.956527 1.09388,-0.341559 1.22559,-0.905955 0.61474,-2.634295 -0.36105,-1.021566 -0.35816,-1.037459 0.0831,-0.457471 0.36965,0.485874 0.61791,0.568707 1.29724,0.432841 0.74734,-0.149468 0.8993,-0.07069 1.37615,0.713435 0.77879,1.280605 0.94783,2.848677 0.4385,4.067662 -0.23287,0.557326 -0.35555,1.081167 -0.27263,1.16409 0.31676,0.316754 1.59877,-0.688329 2.10514,-1.650402 0.50707,-0.963409 0.57605,-1.000344 1.65196,-0.884526 1.3196,0.14205 2.90062,1.240018 3.136,2.177849 0.089,0.35469 0.0375,1.001546 -0.11444,1.43746 -0.18003,0.516446 -0.18558,0.848635 -0.0159,0.953492 0.43091,0.266311 1.00969,-0.410617 1.31246,-1.535004 0.34922,-1.296897 0.09,-2.020056 -1.49643,-4.175095 -1.86482,-2.533198 -2.42909,-3.964123 -1.5632,-3.964123 0.21828,0 0.39687,-0.178594 0.39687,-0.396875 0,-0.218281 0.16868,-0.396875 0.37483,-0.396875 0.20615,0 0.41976,-0.134799 0.47468,-0.299555 0.069,-0.207128 0.35752,-0.16631 0.93495,0.132292 0.4593,0.237516 1.01231,0.431847 1.2289,0.431847 0.26166,0 0.45151,0.384826 0.56578,1.146851 0.24467,1.631565 0.5555,2.038393 1.0561,1.382266 0.47103,-0.617372 0.49734,-1.611254 0.0859,-3.245167 -0.27322,-1.085028 -0.25366,-1.25318 0.18286,-1.572371 0.26883,-0.196577 0.87411,-0.357413 1.34506,-0.357413 1.07913,0 1.95301,1.022267 1.95301,2.28464 0,1.111171 0.61101,1.196053 1.17158,0.162756 0.3847,-0.709114 0.395,-0.711856 0.40532,-0.107878 0.006,0.340849 0.24872,0.922452 0.53976,1.292452 0.71057,0.903344 0.66694,1.244232 -0.19843,1.550318 -0.42335,0.149738 -0.60673,0.332817 -0.43854,0.437814 0.15898,0.09925 0.94808,-0.231759 1.75355,-0.735583 1.92618,-1.20483 2.96918,-1.421317 3.35694,-0.696773 0.15894,0.296981 0.28898,0.739577 0.28898,0.983546 0,0.360564 -0.0896,0.332872 -0.47901,-0.14797 -0.6142,-0.758514 -1.77687,-0.76847 -2.52327,-0.02161 -0.55002,0.550356 -0.55402,0.597106 -0.11648,1.360169 0.24921,0.434623 0.3862,0.96461 0.30441,1.177751 -0.14619,0.380965 -1.63478,0.92266 -2.54346,0.925554 -0.75071,0.0024 -0.52991,0.747046 0.35758,1.205987 0.87462,0.452281 1.89595,0.524314 3.44322,0.242845 0.84624,-0.153945 1.01764,-0.08726 1.48664,0.578382 0.86406,1.226349 0.93235,1.784919 0.31427,2.570676 -0.30752,0.390945 -0.48856,0.894704 -0.40231,1.119462 0.28133,0.733147 1.0696,0.257813 1.80588,-1.088972 0.47229,-0.863904 0.72356,-1.135239 0.7276,-0.785717 0.01,0.853525 -1.1983,2.392317 -2.28214,2.906633 -0.54874,0.260395 -1.50851,0.531021 -2.13282,0.60139 -1.22684,0.138282 -1.3636,0.321995 -0.71933,0.966266 0.54389,0.543888 1.38037,0.520687 3.94742,-0.109492 1.80284,-0.442571 2.1683,-0.46496 2.48125,-0.152017 0.29199,0.291995 0.30601,0.541968 0.0686,1.223084 -0.50897,1.460019 -0.4214,1.62628 0.80451,1.527472 1.02679,-0.08276 1.12713,-0.03 1.45316,0.764122 0.33007,0.803955 0.30468,0.904888 -0.44148,1.754722 -0.43544,0.495935 -0.79171,1.034809 -0.79171,1.197501 0,0.488701 1.32007,0.333865 2.14173,-0.251217 l 0.76822,-0.547012 0.28621,0.74545 c 0.4937,1.285833 -0.29798,2.321391 -2.61541,3.421105 -1.30692,0.620188 -1.88194,1.023776 -1.70737,1.198348 0.14477,0.144769 1.18017,0.350806 2.3009,0.457856 1.31501,0.125611 2.12353,0.330327 2.27974,0.577226 0.3299,0.521454 0.31679,1.645623 -0.0168,1.439455 -0.53276,-0.329258 -1.35453,0.157265 -1.26983,0.751792 -0.31882,0.479333 -1.1452,0.387414 -1.86404,1.236155 l -1.74407,0.979493 -1.39118,1.530824 c -1.94212,2.137077 -2.46898,3.669043 -2.73016,7.938613 -0.16352,2.67318 -0.37768,3.94068 -0.96114,5.68854 -0.65324,1.95691 -0.74991,2.64408 -0.74437,5.29166 0.008,3.65994 0.50349,6.2313 2.13664,11.08057 2.71902,8.07352 1.87641,5.42564 3.94323,9.78519 -1.55314,3.0205 -17.20979,6.38708 -19.9302,6.19256 -13.66541,1.43392 -19.53878,-1.30168 -21.970546,-6.33283 z"
       id="path914"
       inkscape:connector-curvature="0"
       sodipodi:nodetypes="cscccccccccccsccccsccscccsccccccccscccccccccccccscccccsscccccccccsccsccscccccccccccccccsccsccccccccscscccssssscccccccccccsscscsccccscsccscsscscccccccccccsccccccccsccsccccscccccsssccsccccsscccccscscccscccccccccsccccsccscccccccccccccccsccc" />
    <path
       style="fill:none;stroke:#000000;stroke-width:0.264583px;stroke-linecap:butt;stroke-linejoin:miter;stroke-opacity:1"
       d="m 54.821888,87.354811 c 0,0 2.550853,49.554159 50.155302,52.115589"
       id="path949"
       inkscape:connector-curvature="0" />
    <path
       style="fill:none;stroke:#f8f9ef;stroke-width:1.32292;stroke-linecap:butt;stroke-linejoin:miter;stroke-miterlimit:4;stroke-dasharray:none;stroke-opacity:0"
       d="m 138.93896,132.72091 c 2.91041,8.73125 -5.93459,-9.80624 -5.29167,-20.10834 0.35528,-5.69299 0.015,-5.50361 2.92546,-14.49944 2.91042,-8.995833 7.12871,-6.667223 7.12871,-6.667223"
       id="path1538"
       inkscape:connector-curvature="0"
       sodipodi:nodetypes="cssc" />
  </g>
  <g
     inkscape:groupmode="layer"
     id="layer2"
     inkscape:label="Layer 6"
     style="display:inline;opacity:1"
     transform="translate(2.2261237)">
    <path
       style="display:inline;opacity:1;fill:#f8f9ef;fill-opacity:1;stroke:#2176ae;stroke-width:5;stroke-miterlimit:4;stroke-dasharray:none;stroke-opacity:1"
       d="M 378.07857,524.53226 C 319.74312,516.57557 274.48538,487.95311 244.09106,439.79423 227.75149,413.90467 215.0821,378.8221 209.86444,345.0179 c -2.31524,-15.00003 -4.83611,-15.80868 5.85918,-31.20472 12.54265,-18.05534 23.31976,-30.85412 29.20288,-37.09441 2.63977,-2.80003 15.64915,-16.29677 19.10115,-18.95807 8.70188,-6.70867 13.0546,-12.36972 26.30953,-24.75645 21.34335,-19.94539 28.76967,-24.64689 63.03612,-46.21867 24.43963,-15.38549 36.15163,-20.51356 46.89577,-24.11122 6.54162,-2.19044 0.0518,-1.77618 30.47667,-7.3877 7.74,-1.42756 27.5674,-2.93743 33.02621,-4.58134 16.926,-5.09725 36.38653,0.51156 47.54198,1.86097 15.54219,0.97557 30.92845,14.97123 42.41956,17.11474 6.75323,2.81211 15.25343,6.87177 21.16571,13.01149 5.76697,5.98882 11.74075,8.47773 16.60014,10.46287 10.06731,4.11266 12.13398,7.24163 16.1126,11.07166 2.79503,2.69064 2.34843,7.11816 2.34843,8.55134 -1.00765,1.36045 -0.31418,4.67345 -5.17682,2.71038 -2.25568,-0.6264 -7.90352,-7.70028 -8.09755,-5.33172 -0.12948,1.58043 1.94281,7.6154 2.57993,9.56328 1.84322,5.63532 3.19963,5.14856 -0.37014,3.88908 -5.17893,-1.29549 -8.01892,-3.88765 -10.2237,0.85201 0.39786,2.71755 6.35433,2.17129 10.36458,2.89158 4.01024,0.72029 8.61838,1.82094 10.24031,2.64838 3.26958,1.66802 6.46326,5.64348 7.25591,8.1409 0.84675,2.66788 1.74792,3.97034 -0.42325,10.08039 -3.01749,0.34513 -6.53104,-9.25927 -8.60531,-9.05904 -2.01904,0.1949 -1.28077,1.02924 -3.30573,4.42539 -2.64182,4.4307 -1.29029,7.14517 0.41579,13.20421 1.21018,4.29791 7.47534,5.0055 11.31848,4.94754 11.09685,0.32294 14.24141,-6.86106 22.14316,-1.4841 l 8.0905,3.27552 c 8.55345,3.72248 10.8758,2.54547 20.34966,4.03631 8.71902,1.37204 10.805,7.789 13.53855,11.03763 -1.50155,5.35486 -3.27309,4.07944 -9.44726,4.47567 -6.78387,0.43537 -4.72341,0.14077 -4.08072,3.94482 0.99934,5.91503 -2.4931,7.60104 -4.92376,5.72933 -2.97084,-2.28766 -8.0397,-4.28771 -9.26871,-2.32667 -0.6263,0.99933 0.54363,0.60102 3.23256,4.04671 1.84255,2.36111 4.65582,3.27714 6.86194,3.89062 5.20994,1.4488 9.71758,-0.96942 16.20387,-1.93873 3.48902,-0.5214 11.00811,0.97524 13.57044,6.658 0.0225,1.56588 0.65298,7.4143 -2.45638,7.31608 -4.52162,-0.42224 -7.25824,-1.50947 -8.61052,-2.05039 -1.71707,-0.68683 11.80572,4.22419 14.50323,5.29604 7.33624,2.90046 10.38373,7.04266 11.60115,9.98177 0.96986,2.34145 0.17466,10.9964 -0.95754,10.29666 -1.84151,4.42294 -5.34383,2.20237 -5.62894,0.51486 -1.03463,-6.12397 -0.19465,-9.29586 -7.43008,-9.55459 -6.67119,-0.23855 -8.3702,0.16536 -10.53552,1.11012 -0.76503,1.49341 -2.39178,5.1303 -3.61499,6.66437 -1.9659,2.46551 -2.44282,4.03382 -2.84732,9.72702 -0.58767,8.2712 -0.59298,8.13591 -2.89188,10.29563 -9.54802,5.51815 4.45423,3.90052 6.54565,4.82274 3.99645,0.6752 8.45479,4.73855 11.81499,7.68884 3.15388,2.76914 4.05792,8.39443 4.05792,11.03956 -0.55334,2.07938 -3.06385,5.84505 -5.52904,2.89731 -1.65518,-1.97918 -2.13007,-6.15099 -3.13828,-6.73765 -4.15866,-2.59003 -5.16818,-1.3956 -8.00233,4.15746 -0.0184,1.46411 -3.49342,4.28552 -6.02547,3.14463 -1.8994,-0.85584 -3.24454,-1.92807 -5.00753,-1.92807 -3.04871,0 -6.51929,-1.88307 -6.51929,0.1646 0,1.72326 5.63428,5.47636 10.95362,10.83127 7.90696,7.95985 6.2864,9.52652 6.26001,13.4846 -0.0164,2.45962 -2.96879,5.37706 -3.62762,4.24368 -1.06473,-1.83166 -3.50637,-4.07073 -5.66315,-5.73661 -2.11143,-0.007 -5.03271,-3.7958 -6.04812,-2.25221 -0.48125,1.20275 -0.6623,4.07585 -2.26581,6.48833 -1.87521,2.82126 -7.8596,4.80302 -8.515,4.92272 -2.66199,0.4862 -3.57054,-2.37955 -2.88429,-4.28794 1.22839,-3.416 3.04471,-4.98668 1.41579,-6.61559 -1.38888,-1.38889 -3.28802,-0.81736 -9.25951,-1.18015 -4.26199,-0.25893 -15.03907,-3.64107 -10.93448,-4.9957 3.87114,-1.2776 11.46999,-2.17813 11.17478,-9.27498 l 0.44573,-5.38352 -0.80348,-3.55376 c -2.00889,-1.09828 -1.81687,-0.37989 -3.9617,-1.15337 -1.8741,1.47417 -8.23235,4.46333 -8.23235,3.42498 0,-0.25665 -3.10566,-3.76183 -2.24365,-5.1566 2.02689,-3.27957 6.05717,-5.14952 3.33007,-9.27043 -1.87982,-2.84061 -2.88789,-5.60175 -4.15942,-4.8506 -0.32622,0.19271 -2.06198,4.32709 -3.04717,6.5548 -1.32865,3.00431 -6.27132,1.66643 -7.24119,1.48191 -1.02547,-0.19511 -0.22736,-4.01986 -0.51691,-7.48887 -0.14755,-6.45558 -5.07675,-10.45092 -7.80452,-10.36402 -3.243,0.10332 -3.05505,7.93218 -0.99842,16.90322 1.95654,8.53441 -0.92607,14.04299 -3.20696,16.32388 -1.02683,1.02683 -5.25535,0.57289 -5.75146,0.40885 -0.5087,-0.16822 -3.08,-4.40806 -3.32531,-6.93753 -0.56004,-5.77494 0.40785,-5.08017 -0.41667,-7.73126 -0.229,-0.73629 -5.92682,4.68436 -9.84064,5.80818 -1.60621,0.46121 -5.30795,1.19473 -7.62712,0.33578 -1.57439,-0.5831 -9.48484,-2.88103 -8.78305,-4.32765 -0.80286,-0.50815 5.54229,-1.4233 7.58239,-2.27571 3.53646,-1.47763 4.03563,-2.37701 3.46392,-8.00007 -0.6554,-3.8792 -1.35731,-7.05456 -1.35731,-7.46137 0,-0.40682 -1.14426,1.62938 -2.94783,3.10727 -1.4071,1.42682 -4.12786,1.61712 -5.75377,0.77596 -0.63933,-1.02121 -5.98418,-4.06348 -4.15825,-6.01168 3.45118,-3.6823 6.36554,-6.69318 6.36554,-9.00089 0,-1.9075 2.92432,-1.36296 -2.6122,-3.93886 -3.68266,-0.36514 -11.30875,-5.96023 -11.35951,-2.49713 0,4.43581 -5.45954,10.91235 -9.96363,12.61432 -2.56119,0.9678 -10.3077,-1.46424 -9.97195,-3.81422 0.16311,-1.14153 2.33403,-3.25837 4.11126,-3.42973 1.98715,-0.64228 4.11258,-1.67995 3.80434,-4.99159 -2.13767,-1.0768 -6.68317,-0.90632 -11.80306,-0.74862 -5.21894,0.16074 -9.33245,-0.85813 -8.9358,-2.75395 1.84576,-5.17626 6.8309,-6.14344 9.27676,-7.3167 1.58747,-0.68922 7.61472,-2.78377 8.43142,-4.72334 0.86978,-1.6324 1.56223,-3.20387 1.08928,-4.08759 l -0.55656,-1.20232 -6.39766,2.22943 c -3.42955,2.26956 -6.52526,-0.7107 -6.51489,-2.17849 0.004,-0.55841 -0.85528,-0.45206 0.56219,-2.23521 2.97515,-3.7427 7.25748,-5.94581 5.25401,-9.23174 -1.34526,-2.20638 -9.05186,0.60123 -11.83041,-2.09645 0.35666,-1.72622 1.43088,-0.94197 1.1268,-3.81532 0.31583,-1.31988 0.80879,-1.19686 0.84832,-2.56893 0.11514,-3.99694 3.56289,-4.05102 -4.82847,-2.1586 -9.23149,2.08188 -15.18354,2.23171 -17.259,1.1835 -1.52464,-1.6847 -7.55681,-7.97464 -0.26983,-8.60774 5.41389,-1.06949 11.60469,-0.58097 14.55819,-4.45327 2.23517,-2.93049 6.71152,-5.75744 5.26941,-5.75744 -2.30554,2.15195 -7.94309,9.95275 -10.69427,8.10504 -0.61346,-0.61345 -1.32872,-3.85065 -0.16182,-5.8284 0.69418,-2.02819 2.93221,-4.59687 0.88817,-7.04273 l -2.40814,-3.0452 -6.63719,0.70707 c -5.69206,0.60638 -8.98306,-1.83985 -11.14049,-2.96436 -2.85861,-1.48997 -5.13617,-7.6687 -2.93101,-7.67545 2.39987,-0.007 5.71308,0.24337 7.43016,-1.14704 0.6456,-0.48527 3.79092,-0.79714 4.20968,-1.03319 1.96749,-1.10907 -1.65458,-3.14934 -1.52691,-6.07337 6.17449,-8.01044 15.40493,-3.57613 9.53949,-6.44714 -0.86701,-0.41525 -2.6953,1.50933 -5.76826,3.86368 -1.65662,1.26921 -3.67497,2.16125 -6.09944,4.01417 -0.9707,0.74186 -12.21127,0.95662 -12.19447,-0.89673 0.0141,-1.5545 11.33583,-4.63317 10.6115,-6.58599 -2.21914,-6.52151 -0.43405,-5.53146 -3.16895,-3.14182 -1.75855,1.20315 -2.41703,4.01805 -3.18707,2.99081 -0.6638,-0.88552 -2.2404,-0.90651 -2.4522,-1.99561 -0.27401,-1.40903 -1.60889,-3.62128 -1.69848,-5.02729 -0.12763,-2.00292 -0.39556,-3.80604 -1.73666,-4.8488 -2.35217,-1.82889 -5.70898,-2.30247 -6.82363,-0.91773 -0.39244,0.48754 -0.29553,3.74178 0.35659,6.85445 0.68143,3.2526 1.23345,6.02056 1.04026,8.79657 -0.32579,4.68164 -5.06625,4.92052 -6.46286,4.37422 -2.79872,-1.09477 -3.52687,-10.30748 -3.94162,-10.43853 -1.80776,-0.83663 -5.79358,-4.21903 -8.25886,-1.75377 -2.66578,2.42801 -2.85279,4.58513 -0.51489,8.1923 0.95629,1.78649 2.66843,3.92042 5.41125,7.95511 4.88002,7.17851 6.09212,9.44281 5.77114,13.31334 -0.10493,1.26537 -0.37189,4.43923 -1.84079,6.70613 -1.2401,1.9138 -3.17987,3.41135 -3.5694,3.93308 -1.40149,0.90037 -6.12612,-0.49292 -5.81706,-2.40663 1.17085,-7.25001 2.51707,-7.93056 -0.0666,-10.87314 -3.01199,-3.43047 -4.60579,-3.28079 -8.78824,-3.30252 -2.61696,-0.0136 -1.90859,-0.59818 -2.96198,1.10438 -1.87154,3.02488 -7.63989,8.27632 -8.73351,8.27632 -1.18569,0 -5.53769,-1.61334 -4.19785,-5.41084 2.07029,-5.86785 1.64525,-9.7717 -0.88823,-15.24646 -0.83968,-1.81453 -0.27053,-2.11363 -0.98205,-2.48553 -2.18404,0.40972 -1.7375,1.08355 -3.52976,-0.63355 -2.40664,-2.3057 -2.74612,-6.29817 -1.16593,-1.81946 0.77386,2.19335 2.59632,7.66601 1.31817,9.99977 -1.25478,2.29107 -5.59546,2.50734 -6.45875,2.96936 -2.89525,1.54949 -3.95339,-1.46622 -3.72675,-5.95741 0.2532,-5.01721 -0.75457,-7.62271 -4.56698,-9.70417 -3.73275,-2.03797 -10.4286,-2.0467 -13.27849,0.0721 -4.62109,3.43558 -0.78831,6.02118 7.77543,10.72474 7.33854,4.03062 9.56789,6.99528 9.56789,9.90155 0,4.30678 -3.7407,13.78436 -4.71518,10.56907 -0.77363,-2.55257 -6.02644,-12.69015 -7.66348,-13.20972 -1.91954,-0.60923 -3.71677,-1.02468 -3.71467,0.5946 7.4e-4,0.70028 2.09718,5.6647 3.92644,10.48309 3.99669,10.52758 3.76048,14.26573 2.15174,15.60086 -0.73346,0.60872 -3.39361,4.03697 -5.37181,2.79716 -2.22874,-1.39684 -3.304,-5.34426 -3.304,-6.66788 0,-4.198 -1.48532,-9.64846 -7.79015,-15.93448 -7.93359,-7.90991 -13.27302,-9.98494 -13.27302,-9.98494 0.87566,0.75666 0.70355,1.08355 4.93686,3.09293 3.04464,1.44517 7.08314,4.98746 7.69355,5.85894 2.11028,3.01284 2.7049,11.71634 0.28585,9.7087 -1.28205,-1.064 -5.73273,-3.13771 -6.97023,-1.90021 -0.72291,0.72291 -3.42343,-1.88417 -3.54827,1.8718 -0.0402,1.20936 0.76447,4.01226 0.95891,6.16691 0.42092,4.66431 0.17297,10.48248 -0.50902,12.12894 -0.36695,0.8859 -1.4512,2.83667 -3.08711,3.72643 -2.50494,1.36243 -5.90071,1.44506 -6.84378,0.86221 -0.47754,-0.29514 -0.84139,-1.75663 -1.10986,-4.01727 -0.25764,-2.16943 -0.43927,-5.0985 0.003,-7.33459 0.93368,-4.72085 2.83368,-5.42896 -0.44963,-7.10398 -1.44595,-0.60924 -5.25015,-2.15495 -7.12125,-0.41711 -0.78729,0.73121 -0.47029,1.53402 -1.1254,1.78402 -0.89852,0.3429 -1.42661,2.53971 -1.69002,6.64422 -0.40524,6.31449 -4.86542,9.27766 -8.12309,9.99317 -1.21753,0.26741 -7.33158,-0.88887 -7.54836,-1.10561 -0.21677,-0.21678 1.61975,-3.32864 2.25133,-5.81735 1.35912,-5.35549 3.29004,-6.2779 0.281,-7.42194 -3.05612,-1.16193 -3.96117,-0.72966 -6.72299,2.03216 -2.41726,2.41727 -2.00317,1.5001 -2.00317,8.10686 0,7.74521 1.3786,10.61852 7.604,22.73809 6.37113,12.40329 12.79272,17.74743 20.39314,17.76672 1.98917,0.005 5.05033,-2.59778 8.10424,-4.48275 6.7768,-4.18289 15.47499,-1.44252 19.00547,2.81145 0.8523,1.02695 0.24521,6.25578 -0.65256,6.82391 -0.58307,0.36894 -2.58316,-0.52181 -3.71273,-0.51559 -5.5423,0.31589 2.34161,0.41382 2.97872,0.34009 2.09266,-0.20342 7.48645,-2.29224 10.33933,-2.81199 4.37563,-0.52565 6.28197,1.20173 10.42658,4.38249 2.27493,1.74588 3.30341,2.44907 4.59658,4.20915 1.45115,1.97509 1.95474,4.67114 1.4069,5.87352 -0.50429,1.1068 -0.75991,2.62751 -2.26261,3.67037 -1.2658,0.87846 -3.43772,1.44919 -5.0854,0.57344 -1.17425,-0.62413 -2.00619,-1.45064 -1.86971,-2.13307 0.37685,-1.88427 1.87256,-2.6858 -0.62169,-4.33549 -4.51251,-2.77466 -6.6306,-2.14745 -7.28412,-0.1403 -1.03223,3.1277 0.72069,1.78164 3.83123,3.39017 1.52055,0.78631 4.1956,4.50475 4.54452,7.20068 0.15529,1.1998 1.43305,2.79959 1.47418,4.43151 0.0388,1.54053 -0.40617,3.87457 -0.40617,4.6442 0,2.97722 -6.77393,5.6142 -8.55649,4.93016 -0.59776,-0.22937 -2.41721,-3.45049 -2.94536,-5.51118 -0.52818,-2.0607 0.22353,-3.29758 -0.15941,-3.29758 -1.23184,0 -1.89359,2.27643 -3.03544,3.90666 -2.6156,3.7343 -0.50124,5.38162 4.97075,8.08709 2.50757,1.2398 5.24307,-0.95625 16.51469,-5.76927 11.51516,-4.91701 16.21433,-4.01106 18.82328,-2.30161 8.8277,8.05275 -8.33541,6.89164 -7.14642,7.81429 1.0788,-0.0145 7.44365,-1.30138 9.88036,-1.88975 6.22137,-1.50221 9.65903,-1.1937 12.23319,0.50341 2.71265,1.78841 5.79112,7.65297 5.79731,10.00414 0.004,1.73561 -2.82961,6.26155 -5.80106,3.39678 l -4.75794,-4.58712 -0.99773,-0.50914 c -3.71863,0.33719 -9.24454,0.76708 -9.24454,1.81391 0,0.19628 1.39449,1.73001 2.20673,3.24547 0.59007,1.33373 0.18666,6.71629 -0.75765,8.50367 -1.08605,2.1002 -0.66874,0.43141 1.46061,1.53253 2.08432,0.80894 1.09517,0.002 5.78162,-3.53671 2.40594,-1.81671 6.52212,-3.5068 7.0038,-3.51761 0.48167,-0.0109 4.15938,1.62134 7.45825,2.91261 5.3149,2.08041 7.63613,1.27437 9.77048,0.50258 9.011,-3.25842 25.68435,7.78014 23.26421,14.08692 -0.30287,0.78927 -2.87959,8.14648 -4.50607,5.4208 -1.42219,-2.38334 -4.86069,-9.23416 -5.79782,-9.36848 -4.34599,0.60328 -4.32687,2.41091 -7.67366,5.42603 0.66883,2.41838 2.51047,3.02996 4.35231,5.64561 4.39297,6.23857 3.72126,12.3558 2.30732,15.73985 -0.93964,2.24885 -9.03112,4.8262 -9.8228,4.03451 -1.74082,-1.15629 -1.14976,-2.86837 -0.72165,-4.77885 1.48331,-6.61887 2.78389,-9.03603 -6.05048,-9.03812 -5.39674,-0.001 -11.01193,0.0105 -11.59263,1.52376 -0.20751,0.54077 2.64636,4.01586 3.48425,5.57917 -0.67714,3.29385 -1.8662,8.58611 -3.22992,9.42894 -0.51197,0.31641 -4.3182,-1.55929 -5.98782,-3.50477 -2.36215,-2.75246 -1.63527,-3.71311 -2.76378,-3.02175 -0.73395,0.44965 0.91548,-0.2784 0.80771,0.28725 -0.10776,0.56565 2.25915,2.62453 5.73611,6.48041 9.75049,10.81314 13.73678,20.30133 8.93586,22.98337 -2.91056,1.626 -7.94214,3.45498 -9.05572,-1.09557 l -2.59967,-10.62343 -0.36043,-0.88123 c -3.11681,-1.07311 -4.21065,-1.65188 -5.14827,-1.09554 -0.70438,0.41794 -1.99657,4.09623 -3.8241,7.69769 -3.49193,6.88145 -6.30015,8.88789 -13.704,9.0829 -0.0705,-4.55186 0.21305,-5.97154 1.15076,-9.22153 1.9943,-6.91192 3.48824,-8.32566 1.36176,-9.46372 -1.93865,-1.03753 -3.63692,2.32351 -9.06055,6.40049 -6.726,5.05602 -11.60299,-0.0336 -8.57623,-6.77813 3.59329,-8.00691 5.56438,-10.48045 0.66998,-14.06729 l -0.6123,-0.27918 -6.07423,5.08512 c -4.21339,3.5273 -9.87613,1.83948 -11.76232,1.83948 -0.964,0 0.11227,-1.94819 1.58693,-4.87128 0.97318,-1.92906 1.79597,-3.70221 2.54284,-6.08362 l 1.1631,-6.27827 -3.22715,-1.54584 c -2.5106,-2.03296 -1.89544,-1.04939 -5.47054,-1.15584 -3.92963,-0.117 -4.97349,-1.74501 -4.49148,2.83786 0.49111,4.66943 0.28556,9.39429 -1.89946,10.38986 -2.66233,1.21304 -9.71399,3.22474 -9.71399,0.2809 0,-3.0236 1.13219,-5.65485 -1.473,-5.65485 -1.90657,0 -3.4253,2.82853 -8.88554,9.45972 -2.34202,2.84426 -4.79145,1.95012 -6.74102,1.46081 l -5.48949,-3.07939 4.32027,-3.65356 1.59249,-2.28968 -0.98596,-0.73472 c 0.0626,-2.80896 -0.38848,-3.17139 -0.38848,-3.17139 -2.65698,2.23571 -7.17859,3.41462 -8.47821,1.84867 -1.32378,-1.28042 -3.27898,-4.82785 -1.71062,-6.69174 2.09233,-2.48659 2.7238,3.09996 1.54941,0.9056 -1.18722,-2.21834 4.43544,-8.11899 4.43544,-5.27366 0,2.4676 -5.37308,2.25449 -5.73532,4.72765 -0.37225,2.54154 -3.39206,2.89514 -2.91435,0.34871 l -1.07586,-4.13268 -0.14189,-0.53896 c -1.60587,1.24668 -0.78225,-0.49986 -0.78175,9.47426 7.3e-4,14.61237 -0.41618,13.50224 9.65413,18.31339 6.97255,3.33118 10.18728,2.5957 14.23454,-0.18436 1.47808,-1.01529 3.70193,-2.09216 5.18001,-3.10746 1.47808,-1.01529 5.25088,-1.65113 6.24075,-1.65113 2.46474,0 7.14999,5.66864 8.29931,9.50471 0.8684,2.89844 1.20013,5.19014 -0.26929,7.87275 l -2.19562,1.96707 2.04851,2.44566 c 0.99499,1.39734 1.61012,0.11315 0.6846,2.47227 l -0.38968,3.33892 4.4611,-1.99965 c 5.75742,-2.68046 9.64433,-1.28185 13.25609,1.98115 5.39909,4.87775 7.71321,16.93052 4.76245,20.57456 l -6.06105,3.07409 -1.9724,-5.10482 c -0.22751,-1.2002 -0.0313,-2.35834 -0.27832,-4.24062 -0.55259,-4.21011 -1.28077,-5.67212 -3.59985,-6.15313 -2.93387,0.0562 -3.89612,-0.60287 -4.42831,3.61901 -0.71552,5.67616 -2.41723,13.52479 -3.58496,13.52479 -0.62947,0 -4.39028,-4.9862 -4.39028,-5.96822 0,-2.30877 -0.0488,-3.79481 -1.78542,-3.79481 -2.05702,0 -0.29083,0.79052 2.02422,4.19743 3.09863,4.56004 5.49209,8.58271 5.49209,12.11918 0,3.37917 -7.47147,16.50943 -8.51382,15.7483 -1.44435,-1.05466 -1.13932,-9.59477 -1.20566,-12.37503 -0.12736,-5.33824 0.52154,-4.17687 -3.10716,-6.91401 -2.44494,-1.84422 -6.76986,-3.89055 -6.76986,-2.27654 0,0.61823 0.76112,1.06234 -0.45189,3.36832 l -1.42612,1.65974 3.96931,0.34597 c 1.93682,-0.41538 -1.40085,2.52297 0.56749,7.79028 3.56939,9.55167 9.93499,12.56366 17.24739,19.73251 l 2.6624,2.61013 -2.84396,-0.0761 c -1.56418,-0.0419 -6.06161,-0.51496 -9.99428,-1.05136 z"
       id="path951"
       inkscape:connector-curvature="0"
       transform="matrix(0.26458333,0,0,0.26458333,-32.311877,-28.210491)"
       sodipodi:nodetypes="cssssssscssccssscccsccscscscsccccccsscsssccscsccsccsccscsccssscscccssccscccccsccccccsssccssscscscccsccscccsccccccccccccsccccccccscccsccsssccsssssssscccscsccsccscsccssccscsscscccsssssscssscsssccccscccccssccccccccscssccccsssccscsscccccsccsccccccsccccsccccccccccccscccsccccsccsscccccscssccccccccscsscccssscsscccsccsccccccssscssccsccccscccc" />
  </g>
  <g
     inkscape:groupmode="layer"
     id="layer6"
     inkscape:label="Layer 5"
     style="display:inline"
     sodipodi:insensitive="true"
     transform="translate(-30.085752,-28.210491)">
    <path
       id="path946"
       style="display:inline;opacity:1;fill:none;fill-opacity:1;stroke:#f4d35e;stroke-width:30;stroke-miterlimit:4;stroke-dasharray:none;stroke-opacity:1"
       d="M 599.14805,430.17105 A 208.70993,206.83304 0 0 1 417.41987,535.2884 208.70993,206.83304 0 0 1 208.70993,328.45537 208.70993,206.83304 0 0 1 316.42663,147.45013"
       transform="scale(0.26458333)"
       inkscape:connector-curvature="0" />
  </g>
</svg>
