<?xml version="1.0" encoding="UTF-8" standalone="no"?>
<svg
   xmlns:dc="http://purl.org/dc/elements/1.1/"
   xmlns:cc="http://creativecommons.org/ns#"
   xmlns:rdf="http://www.w3.org/1999/02/22-rdf-syntax-ns#"
   xmlns:svg="http://www.w3.org/2000/svg"
   xmlns="http://www.w3.org/2000/svg"
   xmlns:sodipodi="http://sodipodi.sourceforge.net/DTD/sodipodi-0.dtd"
   xmlns:inkscape="http://www.inkscape.org/namespaces/inkscape"
   sodipodi:docname="logo.svg"
   inkscape:version="1.0beta1 (32d4812, 2019-09-19)"
   id="svg8"
   version="1.1"
   viewBox="0 0 154.95302 117.38665"
   height="443.66608"
   width="585.64923">
  <defs
     id="defs2" />
  <sodipodi:namedview
     inkscape:object-nodes="true"
     inkscape:window-maximized="1"
     inkscape:window-y="23"
     inkscape:window-x="0"
     inkscape:window-height="1005"
     inkscape:window-width="1680"
     showgrid="false"
     inkscape:document-rotation="0"
     inkscape:current-layer="svg8"
     inkscape:document-units="px"
     inkscape:cy="197.29443"
     inkscape:cx="394.68069"
     inkscape:zoom="1.4246514"
     inkscape:pageshadow="2"
     inkscape:pageopacity="0.0"
     borderopacity="1.0"
     bordercolor="#666666"
     pagecolor="#ffffff"
     id="base"
     inkscape:snap-object-midpoints="true"
     inkscape:snap-center="false"
     inkscape:snap-nodes="true"
     inkscape:snap-others="true"
     inkscape:object-paths="true"
     units="px"
     fit-margin-top="15"
     fit-margin-left="80"
     fit-margin-right="0"
     fit-margin-bottom="15" />
  <metadata
     id="metadata5">
    <rdf:RDF>
      <cc:Work
         rdf:about="">
        <dc:format>image/svg+xml</dc:format>
        <dc:type
           rdf:resource="http://purl.org/dc/dcmitype/StillImage" />
        <dc:title></dc:title>
      </cc:Work>
    </rdf:RDF>
  </metadata>
  <g
     inkscape:groupmode="layer"
     id="layer5"
     inkscape:label="Layer 4"
     style="display:inline"
     sodipodi:insensitive="true"
     transform="translate(-32.311876,-28.210491)">
    <ellipse
       style="opacity:1;fill:none;fill-opacity:1;stroke:#f4d35e;stroke-width:7.9375;stroke-miterlimit:4;stroke-dasharray:none;stroke-opacity:1"
       id="path925"
       cx="110.44234"
       cy="86.903816"
       rx="55.221169"
       ry="54.724575" />
  </g>
  <g
     inkscape:groupmode="layer"
     id="layer4"
     inkscape:label="Layer 3"
     style="display:inline"
     transform="translate(-32.311876,-28.210491)">
    <path
       style="display:inline;opacity:1;fill:#2176ae;fill-opacity:1;stroke-width:0.264583"
       d="m 97.821214,133.75973 c -0.457877,-1.04304 -0.832511,-2.03333 -0.832511,-2.20064 0,-0.18544 -0.209979,-0.23757 -0.537784,-0.13353 l -0.537784,0.17069 0.536794,-0.88047 c 0.295238,-0.48425 0.537242,-1.10449 0.537784,-1.37831 7.94e-4,-0.43289 0.147736,-0.47818 1.125469,-0.34707 0.815486,0.10936 1.330672,0.38154 1.874851,0.99054 0.662017,0.74087 0.739897,1.00762 0.661457,2.26565 -0.10748,1.72368 0.38505,1.93856 1.01077,0.44099 0.60753,-1.45401 0.33923,-3.00162 -0.80332,-4.63374 -0.65476,-0.93532 -0.871487,-1.45339 -0.68572,-1.63916 0.44396,-0.44396 1.19022,0.22144 1.13329,1.01049 -0.0313,0.43448 0.0855,0.69036 0.31512,0.69036 0.54855,0 0.77336,-0.51145 0.92254,-2.09878 0.12257,-1.30427 0.2038,-1.4556 0.87748,-1.63473 1.00598,-0.26747 2.27312,0.21005 2.42981,0.91568 0.0695,0.31288 0.15806,1.03592 0.19684,1.60676 0.0881,1.29608 0.5528,1.48866 0.99811,0.41359 0.45654,-1.10218 0.006,-2.58036 -1.16456,-3.82162 -0.7513,-0.79661 -1.05771,-0.937 -2.04323,-0.93616 -0.6577,5.3e-4 -1.50412,0.21123 -1.95608,0.48685 l -0.79671,0.48586 0.0945,-0.99064 c 0.0704,-0.73856 -0.0466,-1.13176 -0.46006,-1.54519 -0.305,-0.30499 -0.44992,-0.55453 -0.32206,-0.55453 0.12787,0 0.37754,-0.35019 0.55482,-0.77819 0.41734,-1.00753 -0.0218,-2.43713 -0.980316,-3.19106 -0.804717,-0.63299 -1.393113,-0.52179 -2.717398,0.51354 -1.987425,1.55378 -2.752756,1.56905 -5.627505,0.11231 -1.948881,-0.98758 -2.307822,-1.78949 -2.309005,-5.15856 -7.94e-4,-2.45284 0.05835,-2.83047 0.462031,-2.94654 0.254662,-0.0732 0.685231,-0.22423 0.956821,-0.33556 0.434073,-0.17795 0.458076,-0.13567 0.198437,0.34946 -0.429408,0.80236 -0.391527,0.85126 0.659363,0.85126 0.886254,0 0.942819,-0.0474 0.78871,-0.66145 -0.206325,-0.82206 0.250491,-0.8859 0.473376,-0.0662 0.113274,0.41661 -0.0028,0.73222 -0.386754,1.05139 -0.641924,0.53365 -0.578766,1.34949 0.114813,1.48306 0.265972,0.0512 0.752885,-0.15986 1.082024,-0.46907 l 0.598437,-0.56221 0.474205,1.24169 c 0.455121,1.19171 0.455197,1.25559 0.0019,1.58705 -0.259768,0.18995 -0.604252,0.40012 -0.765516,0.46705 -0.448477,0.18613 0.406318,0.70622 1.029708,0.62651 0.307065,-0.0393 0.906301,-0.65263 1.427702,-1.46138 0.934699,-1.44981 1.865741,-1.96069 2.648146,-1.45308 0.255119,0.16552 0.406638,0.59956 0.383056,1.0973 -0.03261,0.68835 0.05834,0.82346 0.554305,0.82346 1.06707,0 1.55109,-0.85953 1.41413,-2.51117 -0.11329,-1.36614 -0.0784,-1.48043 0.49571,-1.62453 0.73087,-0.18343 1.45374,-0.0229 3.12767,0.69464 1.18458,0.50777 1.22911,0.5659 1.06488,1.39018 -0.0943,0.47314 -0.46095,1.43679 -0.81485,2.14144 -0.3539,0.70466 -0.64346,1.32973 -0.64346,1.38907 0,0.0593 0.28794,0.10787 0.63986,0.10787 0.37443,0 1.21314,-0.48935 2.02188,-1.17968 l 1.38204,-1.17968 0.74159,0.58437 c 1.07842,0.84977 1.10727,2.18708 0.0905,4.19363 -0.52231,1.03073 -0.56162,1.25996 -0.23736,1.38438 0.56374,0.21633 1.18387,-0.071 2.30759,-1.06901 2.11246,-1.87626 3.19395,-0.70022 2.12466,2.31042 -0.51795,1.45833 -0.3703,1.77619 0.65724,1.41482 0.55191,-0.19409 0.87766,-0.64038 1.38389,-1.89601 0.36415,-0.90319 0.87088,-1.84911 1.12607,-2.10203 0.42381,-0.42004 0.56126,-0.42623 1.5875,-0.0715 l 1.12357,0.38839 0.13229,1.85208 c 0.12772,1.78811 0.15514,1.84962 0.79375,1.78089 2.05283,-0.22093 1.28019,-3.05658 -1.62424,-5.961 -0.85292,-0.85292 -1.55076,-1.64572 -1.55076,-1.76179 0,-0.11606 0.17551,-0.35668 0.39003,-0.53471 0.32364,-0.2686 0.48702,-0.15932 0.95979,0.64196 0.35323,0.59867 0.73289,0.93252 0.99903,0.87844 0.61969,-0.1259 0.54084,-2.141 -0.112,-2.86238 -0.4246,-0.46917 -0.44039,-0.58373 -0.10967,-0.79557 1.25621,-0.80467 4.05901,-1.01367 5.26066,-0.39227 0.88294,0.45659 1.12594,1.17271 0.79248,2.33544 -0.35559,1.23985 -0.31873,1.29988 0.52889,0.86155 1.08197,-0.55951 1.26583,-1.63237 0.55517,-3.23949 -0.30882,-0.6984 -0.88254,-1.61291 -1.27492,-2.03224 -0.48329,-0.51649 -0.60601,-0.80123 -0.38043,-0.8827 0.18314,-0.0661 0.82586,-0.53207 1.42827,-1.03536 0.60241,-0.5033 1.28601,-0.87999 1.5191,-0.8371 0.23309,0.0429 0.68246,0.61378 0.99859,1.26862 0.47736,0.98884 0.60748,1.10691 0.76779,0.69665 0.37333,-0.95548 -0.21765,-1.85355 -1.72075,-2.61488 -1.54588,-0.783 -3.59472,-0.97735 -4.47932,-0.42491 -0.38927,0.2431 -0.78555,0.16496 -2.01276,-0.39687 -0.84044,-0.38477 -1.70311,-0.69957 -1.91705,-0.69957 -0.21395,0 -0.87583,0.41672 -1.47086,0.92604 -1.17386,1.00478 -1.388,1.06213 -2.45337,0.65707 -0.58849,-0.22374 -0.65241,-0.33528 -0.38013,-0.66334 0.50504,-0.60854 0.45449,-2.3823 -0.0849,-2.97828 -0.44928,-0.49645 -0.43966,-0.53292 0.26205,-0.9927 0.40066,-0.26252 1.27379,-0.52971 1.9403,-0.59375 1.12542,-0.10814 1.27217,-0.0477 2.05811,0.84743 l 0.84628,0.96386 v -0.82331 c 0,-0.5572 -0.24998,-1.07329 -0.77339,-1.596707 -0.66448,-0.66448 -0.97528,-0.773399 -2.20691,-0.773399 -0.78843,0 -2.01243,0.174229 -2.71999,0.387173 -0.70756,0.212945 -1.34113,0.33251 -1.40794,0.2657 -0.0668,-0.06681 0.0125,-0.415422 0.17616,-0.774695 0.28894,-0.634166 0.32493,-0.641815 1.2336,-0.262151 0.81083,0.338785 0.93597,0.340063 0.93597,0.0096 0,-0.630388 -0.78082,-1.213078 -1.62556,-1.213078 -0.43671,0 -2.07508,0.595313 -3.64083,1.322917 -1.56575,0.727604 -3.14687,1.322917 -3.51359,1.322917 -0.82304,0 -2.34545,-1.006097 -2.60237,-1.719792 -0.2845,-0.790345 0.14519,-1.651616 1.12061,-2.246119 l 0.86904,-0.52967 0.27693,1.122067 c 0.16739,0.678219 0.44859,1.155125 0.7109,1.20564 0.65021,0.125219 1.35725,-1.116439 1.13738,-1.997385 -0.29707,-1.190201 -1.19736,-2.438789 -1.88249,-2.610744 -0.73666,-0.184891 -0.88319,-1.256392 -0.28389,-2.075984 0.41236,-0.563946 1.14664,-0.452316 2.49378,0.379121 0.7164,0.442151 0.83655,0.647769 0.69892,1.19611 -0.18888,0.752578 0.17351,0.871204 0.78707,0.257641 0.719,-0.718995 -0.24289,-2.154786 -2.07169,-3.092358 -1.02064,-0.523253 -1.08754,-0.524922 -3.05213,-0.07622 -2.3734,0.54207 -3.01768,0.47375 -3.13267,-0.332197 -0.074,-0.51887 0.033,-0.592609 0.8599,-0.592609 1.07597,0 1.1856,-0.283882 0.39432,-1.021072 -1.10365,-1.028205 -3.256441,-0.849416 -4.733065,0.393081 -0.675566,0.568452 -0.96502,0.646999 -1.839677,0.499229 -2.519225,-0.425622 -4.383286,-2.478545 -6.432524,-7.084256 -0.902425,-2.028229 -1.091065,-2.743276 -1.108263,-4.200927 -0.01656,-1.403223 0.08574,-1.875118 0.508445,-2.345467 0.685387,-0.762646 1.591379,-1.099566 2.406592,-0.894961 0.999111,0.250761 1.23676,0.947674 0.775113,2.27304 -0.536673,1.540754 -0.525058,1.578682 0.454477,1.484035 1.082294,-0.104577 1.625174,-1.112393 1.631852,-3.029413 0.0035,-0.997267 0.09528,-1.324255 0.344914,-1.228463 0.187097,0.0718 0.340177,0.01786 0.340177,-0.119883 0,-0.137731 0.299514,-0.386887 0.665583,-0.55368 0.526984,-0.240109 0.881983,-0.216675 1.704766,0.112538 1.14844,0.459515 1.327693,0.849005 1.022829,2.22245 -0.113054,0.509322 -0.208394,1.312994 -0.211865,1.785937 -0.0054,0.730795 0.08813,0.859896 0.62275,0.859896 1.273096,0 1.705066,-1.413992 1.218976,-3.990179 -0.40239,-2.132573 -0.22471,-2.508165 1.27009,-2.684864 0.67751,-0.08009 1.07485,0.0083 1.27881,0.2844 0.25507,0.345316 0.34094,0.316434 0.62231,-0.209298 0.47812,-0.893382 -0.34727,-1.868033 -2.14101,-2.528184 -1.08806,-0.400436 -1.41523,-0.641805 -1.34489,-0.992187 0.13208,-0.657953 0.58294,-0.578427 1.98472,0.350067 2.14388,1.420048 4.30221,4.425463 4.50439,6.272234 0.11841,1.081677 0.3226,1.282475 0.85491,0.840703 0.55789,-0.463008 0.35615,-1.54364 -0.85855,-4.598961 -0.89233,-2.24444 -0.9151,-2.378851 -0.45952,-2.711979 0.26364,-0.192776 0.69396,-0.350502 0.95628,-0.350502 0.48213,0 1.9109,1.734804 2.21319,2.687246 0.25256,0.79574 0.7713,0.423246 0.86037,-0.617807 0.0679,-0.793578 -0.0674,-1.061599 -0.90908,-1.800588 -0.54387,-0.477525 -1.55452,-1.103307 -2.24588,-1.390623 -0.93127,-0.38702 -1.37129,-0.763186 -1.69794,-1.45156 -0.42406,-0.89363 -0.41985,-0.950233 0.11004,-1.480127 0.41307,-0.413071 0.96622,-0.574326 2.21016,-0.644305 2.87914,-0.161973 4.34416,1.050285 4.02772,3.332824 -0.15363,1.108138 -0.13756,1.141835 0.45591,0.956527 1.09388,-0.341559 1.22559,-0.905955 0.61474,-2.634295 -0.36105,-1.021566 -0.35816,-1.037459 0.0831,-0.457471 0.36965,0.485874 0.61791,0.568707 1.29724,0.432841 0.74734,-0.149468 0.8993,-0.07069 1.37615,0.713435 0.77879,1.280605 0.94783,2.848677 0.4385,4.067662 -0.23287,0.557326 -0.35555,1.081167 -0.27263,1.16409 0.31676,0.316754 1.59877,-0.688329 2.10514,-1.650402 0.50707,-0.963409 0.57605,-1.000344 1.65196,-0.884526 1.3196,0.14205 2.90062,1.240018 3.136,2.177849 0.089,0.35469 0.0375,1.001546 -0.11444,1.43746 -0.18003,0.516446 -0.18558,0.848635 -0.0159,0.953492 0.43091,0.266311 1.00969,-0.410617 1.31246,-1.535004 0.34922,-1.296897 0.09,-2.020056 -1.49643,-4.175095 -1.86482,-2.533198 -2.42909,-3.964123 -1.5632,-3.964123 0.21828,0 0.39687,-0.178594 0.39687,-0.396875 0,-0.218281 0.16868,-0.396875 0.37483,-0.396875 0.20615,0 0.41976,-0.134799 0.47468,-0.299555 0.069,-0.207128 0.35752,-0.16631 0.93495,0.132292 0.4593,0.237516 1.01231,0.431847 1.2289,0.431847 0.26166,0 0.45151,0.384826 0.56578,1.146851 0.24467,1.631565 0.5555,2.038393 1.0561,1.382266 0.47103,-0.617372 0.49734,-1.611254 0.0859,-3.245167 -0.27322,-1.085028 -0.25366,-1.25318 0.18286,-1.572371 0.26883,-0.196577 0.87411,-0.357413 1.34506,-0.357413 1.07913,0 1.95301,1.022267 1.95301,2.28464 0,1.111171 0.61101,1.196053 1.17158,0.162756 0.3847,-0.709114 0.395,-0.711856 0.40532,-0.107878 0.006,0.340849 0.24872,0.922452 0.53976,1.292452 0.71057,0.903344 0.66694,1.244232 -0.19843,1.550318 -0.42335,0.149738 -0.60673,0.332817 -0.43854,0.437814 0.15898,0.09925 0.94808,-0.231759 1.75355,-0.735583 1.92618,-1.20483 2.96918,-1.421317 3.35694,-0.696773 0.15894,0.296981 0.28898,0.739577 0.28898,0.983546 0,0.360564 -0.0896,0.332872 -0.47901,-0.14797 -0.6142,-0.758514 -1.77687,-0.76847 -2.52327,-0.02161 -0.55002,0.550356 -0.55402,0.597106 -0.11648,1.360169 0.24921,0.434623 0.3862,0.96461 0.30441,1.177751 -0.14619,0.380965 -1.63478,0.92266 -2.54346,0.925554 -0.75071,0.0024 -0.52991,0.747046 0.35758,1.205987 0.87462,0.452281 1.89595,0.524314 3.44322,0.242845 0.84624,-0.153945 1.01764,-0.08726 1.48664,0.578382 0.86406,1.226349 0.93235,1.784919 0.31427,2.570676 -0.30752,0.390945 -0.48856,0.894704 -0.40231,1.119462 0.28133,0.733147 1.0696,0.257813 1.80588,-1.088972 0.47229,-0.863904 0.72356,-1.135239 0.7276,-0.785717 0.01,0.853525 -1.1983,2.392317 -2.28214,2.906633 -0.54874,0.260395 -1.50851,0.531021 -2.13282,0.60139 -1.22684,0.138282 -1.3636,0.321995 -0.71933,0.966266 0.54389,0.543888 1.38037,0.520687 3.94742,-0.109492 1.80284,-0.442571 2.1683,-0.46496 2.48125,-0.152017 0.29199,0.291995 0.30601,0.541968 0.0686,1.223084 -0.50897,1.460019 -0.4214,1.62628 0.80451,1.527472 1.02679,-0.08276 1.12713,-0.03 1.45316,0.764122 0.33007,0.803955 0.30468,0.904888 -0.44148,1.754722 -0.43544,0.495935 -0.79171,1.034809 -0.79171,1.197501 0,0.488701 1.32007,0.333865 2.14173,-0.251217 l 0.76822,-0.547012 0.28621,0.74545 c 0.4937,1.285833 -0.29798,2.321391 -2.61541,3.421105 -1.30692,0.620188 -1.88194,1.023776 -1.70737,1.198348 0.14477,0.144769 1.18017,0.350806 2.3009,0.457856 1.31501,0.125611 2.12353,0.330327 2.27974,0.577226 0.3299,0.521454 0.31679,1.645623 -0.0168,1.439455 -0.53276,-0.329258 -1.35453,0.157265 -1.26983,0.751792 0.1333,0.935746 1.30938,0.888368 2.4328,-0.09801 0.93982,-0.825175 1.66949,-2.568631 1.38515,-3.309628 -0.11965,-0.311774 2.91237,0.829143 4.59122,1.727637 0.82926,0.443809 0.63959,1.333198 -0.54083,2.535959 -0.99829,1.01718 -1.04513,1.128805 -0.64256,1.531369 0.6337,0.633704 1.39693,0.532916 2.22174,-0.293389 l 0.72629,-0.727604 0.31169,1.646693 c 0.58747,3.103618 0.39833,3.870124 -1.01122,4.098152 l -0.66146,0.107006 0.76437,0.374443 c 0.71909,0.352258 0.87139,0.316069 2.57065,-0.610822 0.99345,-0.541893 1.99188,-0.985263 2.21873,-0.985263 0.53857,0 0.92854,1.062886 0.92854,2.530765 0,0.964155 0.0871,1.173397 0.48816,1.173397 0.64361,0 1.36392,-0.819508 1.36392,-1.551759 0,-0.32123 -0.25267,-1.591513 -0.5615,-2.822852 -0.6131,-2.444496 -0.44977,-3.550836 0.60778,-4.116822 0.69588,-0.372419 1.28901,-0.128349 2.35112,0.967468 0.78939,0.814446 0.9099,1.113327 0.9099,2.256732 0,1.159012 0.0626,1.308803 0.51932,1.242075 0.33304,-0.04866 0.6583,-0.455498 0.90676,-1.134213 0.48954,-1.33722 0.42148,-1.269706 1.07196,-1.063254 0.63699,0.202173 1.603,1.93118 1.603,2.869115 0,0.349975 -0.23423,0.934087 -0.5205,1.298027 -0.85666,1.089062 0.15267,1.434947 1.23105,0.421868 0.3368,-0.31641 0.61236,-0.44712 0.61236,-0.290468 0,0.156652 0.35719,0.409337 0.79375,0.561525 0.75455,0.263036 0.79375,0.349901 0.79375,1.758808 0,1.88383 -0.55947,3.00971 -1.59889,3.21759 -1.63415,0.32683 -0.34438,0.88408 2.04624,0.88408 2.10883,0 2.65572,0.72958 1.79482,2.39439 -0.4952,0.95761 -0.27686,0.97978 1.01357,0.10291 0.65237,-0.4433 1.05202,-0.95118 1.15546,-1.46839 0.14515,-0.72573 0.22585,-0.77644 0.98232,-0.61731 1.29886,0.27323 2.54398,0.93591 2.54398,1.35395 0,0.21029 0.11907,0.30876 0.26459,0.21882 0.43497,-0.26883 0.29706,-1.53269 -0.25984,-2.38125 -0.28652,-0.43656 -1.29777,-1.51675 -2.24722,-2.40042 -0.94945,-0.88368 -1.72627,-1.810143 -1.72627,-2.058825 0,-0.878588 0.66939,-0.874969 3.76559,0.02035 0.32333,0.0935 0.54305,-0.09035 0.74602,-0.624218 0.43254,-1.137651 1.04209,-1.683756 1.87939,-1.683756 0.92332,0 1.81108,0.835361 1.81108,1.704176 0,0.893023 0.43665,1.081723 0.63885,0.276087 0.34852,-1.38861 -1.16205,-3.009185 -3.9571,-4.245292 -0.80264,-0.35496 -1.74791,-0.645385 -2.10062,-0.645385 h -0.64128 l 0.6165,-0.665218 c 0.70835,-0.764318 0.94573,-1.70928 0.94573,-3.764695 0,-1.235991 0.11815,-1.58791 0.78993,-2.35303 0.43446,-0.494823 0.86025,-1.179859 0.9462,-1.522304 0.13592,-0.541557 0.41307,-0.666554 2.12853,-0.959992 2.32665,-0.397987 3.17506,-0.153406 3.42723,0.988012 0.0895,0.405132 0.25193,1.034259 0.36095,1.398061 0.1917,0.639704 0.20906,0.628689 0.52793,-0.334926 0.28847,-0.871749 0.26761,-1.103423 -0.16675,-1.852083 -0.4024,-0.693573 -0.96852,-1.045469 -2.98804,-1.857306 -2.59543,-1.043353 -3.43848,-1.593376 -3.43848,-2.243347 0,-0.400227 1.20038,-0.36836 2.18282,0.05794 0.67329,0.292161 0.6225,-1.01913 -0.0661,-1.707782 -0.66927,-0.669274 -2.83305,-0.709462 -6.02231,-0.111847 -1.22489,0.229523 -2.35519,-0.639643 -2.38735,-0.687265 -1.07371,-1.590244 -1.66735,-1.929586 -1.59661,-2.296897 0.14212,-0.738002 0.95179,-0.7157 1.96093,0.05401 1.23719,0.943649 1.81149,0.551542 1.62433,-1.109015 -0.12469,-1.106175 -0.10916,-1.132512 0.76398,-1.296315 0.49019,-0.09196 1.30871,-0.118465 1.81893,-0.0589 1.2042,0.140584 1.25047,-0.480288 0.12004,-1.610717 -0.88303,-0.883028 -1.79111,-1.195856 -4.64419,-1.599893 -2.17295,-0.307724 -2.29271,-0.343834 -4.66109,-1.405409 l -1.77854,-0.797194 -1.37783,0.592724 c -1.09164,0.469609 -1.71144,0.566629 -2.98395,0.467091 -2.18039,-0.206095 -3.02343,-0.369744 -3.42941,-1.665293 0.27332,-0.57096 -0.84791,-2.222691 -0.31955,-3.34141 1.28962,-2.730543 2.03921,-2.989667 3.05965,-1.057675 0.4368,0.826982 0.51678,0.882648 0.52669,0.366591 0.0173,-0.899523 -0.66707,-2.057708 -1.64167,-2.778327 -1.11447,-0.824033 -1.53385,-0.970655 -3.82193,-1.336207 l -1.90341,-0.304097 0.48327,-0.640287 c 0.4482,-0.593819 0.54375,-0.615237 1.31659,-0.295116 1.05843,0.438419 1.28101,0.208973 0.83485,-0.860632 -0.57257,-1.372673 -0.6696,-2.80399 -0.20225,-2.983332 0.45357,-0.174048 1.76866,0.434476 2.28594,1.057755 0.48759,0.587522 0.80822,0.513396 0.80822,-0.186854 0,-1.444035 -2.33503,-3.183043 -5.78482,-4.308229 -1.16264,-0.379208 -1.85617,-0.898652 -3.83646,-2.873455 -2.82982,-2.821982 -5.71447,-4.464682 -8.61919,-4.908301 -1.51273,-0.231029 -1.84203,-0.396192 -2.93358,-1.471326 -1.11521,-1.098438 -1.39591,-1.23464 -3.01788,-1.46434 -0.98358,-0.13929 -3.23534,-0.620956 -5.00392,-1.070368 -3.94697,-1.00296 -5.21295,-0.94407 -9.30102,0.432662 -1.90613,0.641925 -4.55379,1.243311 -7.67292,1.742819 -9.79795,1.56908 -11.05306,2.042534 -19.579164,7.385662 -10.209382,6.398005 -13.422527,8.779661 -18.388542,13.630006 -2.110052,2.060904 -4.788958,4.445343 -5.953125,5.298751 -3.041189,2.229387 -4.15766,3.327278 -6.568593,6.459283 -7.075988,9.192302 -8.140695,11.669617 -9.272357,12.689412 -0.626527,0.794073 -2.313701,-0.220838 -0.589656,-1.63053 1.22417,-1.256173 1.787437,-2.798512 2.861334,-4.068326 2.905466,-2.968921 4.391803,-4.834159 6.939108,-8.708043 1.113906,-1.694 2.536515,-3.591234 3.161355,-4.216074 1.236599,-1.236599 3.631015,-2.856436 5.314873,-3.595545 0.645002,-0.283114 1.770907,-1.255394 2.857649,-2.467728 2.978332,-3.322537 14.619308,-11.84493 22.601668,-16.546751 7.13158,-4.200691 11.66933,-5.700684 18.17431,-6.007675 2.23555,-0.105504 4.13661,-0.384054 6.29106,-0.921792 3.41757,-0.853005 6.28695,-0.990285 10.26713,-0.491212 2.78708,0.34947 4.82913,1.029512 6.95207,2.315181 0.90959,0.550851 3.08255,1.578967 4.8288,2.284704 4.70407,1.901124 7.07994,3.162495 8.9586,4.756216 0.92563,0.785236 2.75805,2.092724 4.07205,2.905528 2.41898,1.496322 3.68105,2.675855 4.44614,4.155361 0.38474,0.744012 0.3848,0.854297 7.9e-4,1.278742 -0.2312,0.255478 -0.8897,0.605121 -1.46333,0.776985 -0.57364,0.171863 -1.10835,0.418269 -1.18826,0.547567 -0.3339,0.540261 0.46893,1.644718 2.19891,3.025037 1.39327,1.11167 1.95212,1.757414 2.29269,2.649179 0.24768,0.648558 0.3711,1.307408 0.27425,1.464111 -0.28998,0.469198 -1.80217,0.321026 -2.77476,-0.271886 -0.88146,-0.537363 -0.92154,-0.539413 -1.2734,-0.06516 -0.45061,0.607362 -0.2246,2.521408 0.43256,3.663212 0.74787,1.299422 1.47139,1.375307 3.8776,0.406694 2.59524,-1.044705 3.38089,-0.980866 6.53108,0.530704 1.61917,0.776933 2.83645,1.161444 4.21753,1.332216 2.84956,0.352354 3.27228,0.475803 3.89349,1.13705 0.49048,0.522097 0.55789,0.885301 0.52134,2.808893 -5.19954,4.60632 -4.37038,4.45189 2.42814,3.972356 0.72191,0.428752 1.386,1.1414 1.88763,2.025677 0.42565,0.750321 1.04151,1.64329 1.36857,1.984375 1.42539,1.486484 2.11226,3.317999 2.08064,5.54795 -0.0256,1.80328 -0.57856,3.017586 -1.47689,3.243053 -1.18049,0.296254 -1.48558,-0.02664 -1.48558,-1.572122 0,-2.019766 -0.39923,-2.762266 -1.48523,-2.762266 -1.97148,0 -2.9765,1.164196 -3.20789,3.715956 -0.1792,1.976345 0.19244,2.584273 2.44222,3.994875 1.81643,1.138896 2.33884,1.925177 2.62713,3.95405 0.21065,1.482439 -0.16989,2.622616 -0.87531,2.622616 -0.28169,0 -1.19382,-0.26085 -2.02696,-0.57967 l -1.51479,-0.579681 -0.49313,0.608991 c -0.65579,0.80987 -0.62216,1.24667 0.16834,2.18612 1.55654,1.84985 0.34106,6.03716 -1.75245,6.03716 -0.52717,0 -0.93197,-0.25933 -1.43571,-0.91977 l -0.70155,-0.91977 -0.77742,0.77742 c -0.82538,0.82538 -1.94107,1.15787 -3.41038,1.01635 -0.81163,-0.0782 -0.93079,-0.19961 -1.23635,-1.2599 -0.40141,-1.39285 -0.66333,-1.59535 -2.0705,-1.6007 -2.47703,-0.009 -2.98228,-1.62455 -1.05106,-3.35991 1.35225,-1.2151 1.54609,-1.9358 0.52067,-1.9358 -1.08732,0 -2.48066,-0.715329 -2.81266,-1.443986 -0.22609,-0.496213 -0.23288,-0.925071 -0.0253,-1.601248 0.33185,-1.081283 0.037,-1.19452 -1.30432,-0.500901 -0.48207,0.249288 -1.12171,0.361728 -1.55958,0.274153 -2.90481,-8.52912 -1.3367,-2.330815 -0.92225,1.051333 0.16856,1.375529 -1.06264,2.530499 -2.22577,3.012279 -0.99714,0.41303 -1.4599,0.091 -2.13604,-1.486343 -0.25911,-0.604493 -0.59557,-1.175993 -0.74768,-1.270002 -0.1521,-0.09401 -0.87238,0.131 -1.6006,0.500017 -1.94152,0.983848 -2.96427,0.902558 -3.9682,-0.315381 -1.01745,-1.234339 -1.04344,-2.033775 -0.0854,-2.627084 1.56941,-0.971939 1.85369,-1.942841 0.56886,-1.942841 -0.58001,0 -1.08366,-0.263446 -1.7198,-0.899583 -0.93733,-0.937337 -1.14082,-1.859452 -0.62359,-2.825904 0.46408,-0.867129 -0.39412,-0.905986 -1.929,-0.08734 -3.15344,1.681924 -3.54859,1.824966 -5.48355,1.985039 l -1.97719,0.163565 -1.39118,1.530824 c -1.94212,2.137077 -2.46898,3.669043 -2.73016,7.938613 -0.16352,2.67318 -0.37768,3.94068 -0.96114,5.68854 -0.65324,1.95691 -0.74991,2.64408 -0.74437,5.29166 0.008,3.65994 0.50349,6.2313 2.13664,11.08057 2.71902,8.07352 1.87641,5.42564 3.94323,9.78519 -1.55314,3.0205 -17.20979,6.38708 -19.9302,6.19256 -13.66541,1.43392 -19.53878,-1.30168 -21.970546,-6.33283 z"
       id="path914"
       inkscape:connector-curvature="0"
       sodipodi:nodetypes="cscccccccccccsccccsccscccsccccccccscccccccccccccscccccsscccccccccsccsccscccccccccccccccsccsccccccccscscccssssscccccccccccsscscsccccscsccscsscscccccccccccsccccccccsccsccccscccccsssccsccccsscccccscscccscccccccccsccccsccscccccccccscccccccccccsssssccscccsccscscsccccscccsccssccsccsccsccsscsccccccccsscscsccccccsccccccssssscssssssscccssccsssscsccccccccccccssccccccccsscscsccccsccsccccsccccsccccscsccsscccccsccc" />
    <path
       style="fill:none;stroke:#000000;stroke-width:0.264583px;stroke-linecap:butt;stroke-linejoin:miter;stroke-opacity:1"
       d="m 54.821888,87.354811 c 0,0 2.550853,49.554159 50.155302,52.115589"
       id="path949"
       inkscape:connector-curvature="0" />
    <path
       style="opacity:1;fill:#f8f9ef;fill-opacity:1;stroke:#f8f9ef;stroke-width:1;stroke-miterlimit:4;stroke-dasharray:none;stroke-opacity:1"
       d="M 378.07857,524.53226 C 319.74312,516.57557 274.48538,487.95311 244.09106,439.79423 227.75149,413.90467 215.0821,378.8221 209.86444,345.0179 c -2.31524,-15.00003 -2.82981,-13.13361 7.86548,-28.52965 12.54265,-18.05534 28.33553,-38.87934 34.21865,-45.11963 2.63977,-2.80003 7.62393,-7.26839 11.07593,-9.92969 8.70188,-6.70867 14.05775,-11.36657 27.31268,-23.7533 21.34335,-19.94539 30.77597,-26.98758 65.04242,-48.55936 24.43963,-15.38549 31.78199,-19.34701 42.52613,-22.94467 6.54162,-2.19044 10.10601,-2.94273 40.53084,-8.55425 7.74,-1.42756 18.53903,-3.94058 23.99784,-5.58449 16.926,-5.09725 19.33294,-5.17297 36.50731,-1.14849 4.06117,0.95165 10.20831,2.27354 13.66031,2.93753 3.452,0.66399 6.99175,1.35953 7.86613,1.54566 0.87437,0.18612 3.96355,2.32169 6.86484,4.74572 3.53946,2.95723 6.17471,4.56165 8.00936,4.87637 14.44406,2.47773 22.94427,7.20616 37.21615,20.70233 6.04081,5.71248 8.06253,7.14019 12.92192,9.12533 10.06731,4.11266 13.77892,6.2115 17.75754,10.04153 2.79503,2.69064 3.87863,4.28938 3.87863,5.72256 0,2.45839 -0.73033,2.50934 -2.8978,0.20218 -2.07382,-2.20748 -5.26218,-3.5826 -7.55423,-3.2581 -1.42722,0.20207 -1.77286,0.75009 -1.96689,3.11865 -0.12948,1.58043 0.28587,4.46722 0.92299,6.4151 1.84322,5.63532 1.70839,5.97703 -1.86138,4.71755 -2.98098,-1.05176 -3.04854,-1.03668 -5.2587,1.17348 -1.23141,1.2314 -2.04897,2.42886 -1.81682,2.66102 0.23216,0.23215 3.70323,1.01143 7.71348,1.73172 4.01024,0.72029 8.61839,1.98663 10.24032,2.81407 3.26958,1.66802 7.95449,6.47195 8.74714,8.96937 0.84675,2.66788 -0.0747,2.4791 -1.74879,-0.35829 -1.36056,-2.30597 -1.89162,-2.63154 -3.96589,-2.43131 -2.01904,0.1949 -2.77202,0.86355 -4.79698,4.2597 -2.64182,4.4307 -3.01712,7.74033 -1.57249,13.86698 1.87296,7.94317 3.33301,8.98214 13.4725,9.58696 6.14602,0.36661 7.18876,0.22353 11.7916,-1.61797 l 5.04937,-2.02015 6.76495,2.94413 c 8.55345,3.72248 10.21302,4.20241 19.68688,5.69325 8.71902,1.37204 13.12471,3.14958 15.85826,6.39821 2.97218,3.53224 2.52618,4.07944 -3.64799,4.47567 -6.78387,0.43537 -8.03728,1.30063 -7.39459,5.10468 0.99934,5.91503 -1.16755,7.26965 -6.24931,3.9067 -3.12688,-2.06927 -5.71998,-2.1337 -6.94899,-0.17266 -0.6263,0.99933 -0.11915,2.09227 2.56978,5.53796 1.84255,2.36111 4.63217,4.93207 6.19917,5.71325 2.62718,1.3097 3.39887,1.35228 9.90752,0.54667 14.92186,-1.84695 20.61833,-0.516 20.69526,4.83537 0.0225,1.56588 -0.17549,1.61503 -4.77609,1.18542 -4.52162,-0.42224 -4.79957,-0.35866 -4.79957,1.09779 0,2.19726 3.63589,4.66779 12.18352,8.27852 8.82748,3.72893 10.95307,5.13995 12.17049,8.07906 0.96986,2.34145 0.43378,7.76261 -0.69842,7.06287 -0.35026,-0.21647 -0.8701,-1.77427 -1.15521,-3.46178 -1.03463,-6.12397 -4.33699,-7.47323 -14.05782,-5.74364 -6.57223,1.16937 -6.87896,1.32521 -8.38151,4.25829 -0.76503,1.49341 -2.39178,3.97045 -3.61499,5.50452 -1.9659,2.46551 -2.27713,3.53674 -2.68163,9.22994 -0.58767,8.2712 -1.42143,11.28408 -3.72034,13.4438 -1.02212,0.96024 -1.85841,1.99103 -1.85841,2.29066 0,0.29963 1.32128,0.76801 2.93617,1.04084 3.99645,0.6752 13.92268,5.56702 17.28288,8.51731 3.15388,2.76914 4.88639,5.74334 4.88639,8.38847 0,3.13451 -1.15062,2.739 -2.07385,-0.71288 -0.64234,-2.40163 -1.52779,-3.69336 -3.2796,-4.7844 -4.15866,-2.59003 -8.15067,-0.89852 -10.98482,4.65454 -1.59289,3.12099 -1.82865,3.17786 -6.85393,1.65339 -1.9936,-0.60478 -5.06717,-1.0996 -6.83016,-1.0996 -3.04871,0 -3.20542,0.10525 -3.20542,2.15292 0,1.72326 1.32625,3.48804 6.64559,8.84295 7.90696,7.95985 9.60027,10.52068 9.57388,14.47876 -0.0164,2.45962 -0.152,2.72596 -0.81083,1.59258 -1.06473,-1.83166 -7.8144,-4.89919 -10.79965,-4.90814 -2.11143,-0.007 -2.54731,0.34654 -3.56272,2.88429 -1.04403,2.60929 -6.42729,7.4799 -7.30125,6.60594 -0.17658,-0.17658 0.24041,-1.88247 0.92666,-3.79086 1.22839,-3.416 1.22209,-3.49544 -0.40683,-5.12435 -1.38888,-1.38889 -2.79586,-1.73802 -8.76243,-2.17431 -8.07294,-0.59032 -9.90258,-1.48706 -5.79799,-2.84169 3.87114,-1.2776 5.67072,-5.492 5.37551,-12.58885 l -0.21704,-5.21782 -3.45458,-1.89683 -3.45456,-1.89682 -1.99838,1.57192 c -1.8741,1.47417 -4.75279,2.14362 -4.75279,1.10527 0,-0.25665 0.70529,-1.60781 1.5673,-3.00258 2.02689,-3.27957 1.58345,-7.96631 -1.14365,-12.08722 -1.87982,-2.84061 -4.54482,-4.60759 -5.81635,-3.85644 -0.32622,0.19271 -1.39921,2.17307 -2.3844,4.40078 -1.32865,3.00431 -2.12898,3.98614 -3.09885,3.80162 -1.02547,-0.19511 -1.38722,-1.20307 -1.67677,-4.67208 -0.77519,-9.28753 -9.35062,-15.44567 -14.43226,-10.36402 -2.29431,2.29431 -2.39227,6.93802 -0.33564,15.90906 1.95654,8.53441 1.89072,10.72912 -0.39017,13.01001 -1.02683,1.02683 -2.27287,1.73274 -2.76898,1.5687 -0.5087,-0.16822 -1.09168,-2.25404 -1.33699,-4.78351 -0.56004,-5.77494 -1.91186,-9.05681 -3.73054,-9.05681 -0.77108,0 -4.37918,1.49525 -8.01801,3.32278 -6.73858,3.38431 -8.41699,3.8147 -10.27951,2.63587 -0.80286,-0.50815 -0.42268,-0.92622 1.61742,-1.77863 3.53646,-1.47763 4.03563,-4.19964 2.46976,-13.46796 -0.6554,-3.8792 -1.19162,-7.38594 -1.19162,-7.79275 0,-0.40682 -1.47564,0.46952 -3.27921,1.94741 -3.56112,2.91806 -6.61326,3.27406 -8.07348,0.94166 -0.63933,-1.02121 -0.3506,-1.74378 1.47533,-3.69198 3.45118,-3.6823 4.7086,-5.86471 4.7086,-8.17242 0,-1.9075 -0.55524,-2.35712 -6.09176,-4.93302 -6.99418,-3.25409 -12.48832,-5.19975 -13.29112,-4.70681 -0.30458,0.18702 -0.55379,1.3305 -0.55379,2.54107 0,4.43581 -4.63107,10.74665 -9.13516,12.44862 -2.56119,0.9678 -4.34274,-0.13869 -4.00699,-2.48867 0.16311,-1.14153 0.84279,-1.60143 2.62002,-1.77279 2.15983,-0.20825 2.39865,-0.46665 2.38848,-2.58438 -0.006,-1.29415 -0.26383,-2.7502 -0.57246,-3.23568 -0.61588,-0.96876 -4.93638,-2.03241 -11.23692,-2.76638 -2.23714,-0.26061 -4.49984,-0.74102 -5.02822,-1.06758 -1.13672,-0.70253 0.18889,-1.68084 6.88134,-5.0785 6.13739,-3.11585 8.85343,-6.11458 8.76015,-9.6719 -0.0402,-1.53129 -0.45996,-3.5072 -0.93291,-4.39092 l -0.85991,-1.60675 -2.75773,1.82499 c -3.42955,2.26956 -7.53635,3.23256 -7.52598,1.76477 0.004,-0.55841 1.16691,-2.47424 2.58438,-4.25739 2.97515,-3.7427 3.11199,-4.7325 1.10852,-8.01843 -1.34526,-2.20638 -1.76902,-2.39978 -5.2583,-2.39978 h -3.79513 l 0.57423,-2.39979 c 0.31583,-1.31988 0.60657,-3.52237 0.6461,-4.89444 0.11514,-3.99694 -1.29036,-4.35435 -9.68172,-2.46193 -9.23149,2.08188 -13.56579,2.1306 -15.33792,0.17241 -1.52464,-1.6847 -1.49025,-1.70586 4.78563,-2.94562 5.41389,-1.06949 9.38028,-3.41204 12.33378,-7.28434 2.23517,-2.93049 3.27381,-6.76852 1.8317,-6.76852 -0.33133,0 -1.30424,1.24872 -2.16202,2.77492 -2.23176,3.97089 -5.15901,6.58007 -6.20674,5.53234 -0.61346,-0.61345 -0.41873,-1.52514 0.74817,-3.50289 2.21082,-3.74705 2.02223,-6.92239 -0.62847,-10.58156 l -2.20592,-3.0452 -6.83941,0.40374 c -5.71433,0.33733 -7.2642,0.18234 -9.42163,-0.94217 -2.85861,-1.48997 -3.92286,-3.92766 -1.7177,-3.93441 2.39987,-0.007 6.72417,-1.47548 8.44125,-2.86589 1.67055,-1.35273 1.67153,-1.36589 0.35827,-4.80459 -1.59238,-4.16959 -1.33178,-5.02432 2.01623,-6.61305 2.80802,-1.3325 5.2783,-0.88286 7.08063,1.28881 1.38366,1.66722 2.27903,1.47189 2.27903,-0.49717 0,-2.68203 -2.02765,-4.96386 -4.41092,-4.96386 -1.16159,0 -4.29939,1.16043 -6.97288,2.57875 -4.76743,2.52917 -4.86134,2.54692 -4.88394,0.923 -0.0127,-0.91067 -0.84167,-2.98488 -1.84221,-4.60935 -1.00053,-1.62447 -1.832,-3.78427 -1.8477,-4.79957 -0.0275,-1.77503 -0.11547,-1.73957 -2.29022,0.92254 -2.53077,3.09792 -3.59596,3.01609 -3.59596,-0.27626 0,-2.51511 -0.97006,-4.68689 -3.17457,-7.10723 -1.93984,-2.12977 -7.65259,-2.32827 -10.09471,-0.35076 -1.5989,1.29471 -1.60509,1.38218 -0.50979,7.19935 1.18754,6.30716 0.97297,9.36655 -0.75768,10.80286 -1.38019,1.14546 -2.18058,-0.0179 -2.86242,-4.16063 -0.68314,-4.15068 -1.20487,-4.86185 -4.4674,-6.08952 -5.4477,-2.04994 -6.50134,-1.99463 -8.96662,0.47063 -1.25454,1.25455 -2.63883,2.281 -3.07619,2.281 -1.3473,0 -0.88279,3.30836 0.94354,6.72018 0.95629,1.78649 3.98285,6.54927 6.72567,10.58396 4.88002,7.17851 4.97992,7.42062 4.65894,11.29115 -0.19352,2.33364 -0.91933,4.74735 -1.77025,5.88707 -1.5026,2.01257 -2.99173,2.13592 -2.68267,0.22221 1.17085,-7.25001 1.20265,-7.02057 -1.38097,-9.96315 -3.01199,-3.43047 -7.33575,-5.5052 -11.5182,-5.52693 -2.61696,-0.0136 -3.32411,0.31181 -4.3775,2.01437 -1.87154,3.02488 -6.32548,7.56855 -7.4191,7.56855 -1.18569,0 -1.18998,0.10552 0.14986,-3.69198 2.07029,-5.86785 1.19273,-12.02182 -2.40487,-16.86421 -1.64856,-2.21897 -2.0905,-2.41696 -4.41977,-1.97998 -2.18404,0.40972 -2.9196,0.16788 -4.71186,-1.54922 -2.40664,-2.3057 -2.5964,-1.80678 -1.01622,2.67193 1.53357,4.34659 1.42199,7.16373 -0.32066,8.09637 -2.89525,1.54949 -3.38363,1.01113 -3.15699,-3.48006 0.2532,-5.01721 -1.35343,-8.22156 -5.16584,-10.30302 -3.73275,-2.03797 -15.21942,-1.89699 -18.06931,0.22177 -4.62109,3.43558 -2.13573,8.56631 6.42801,13.26987 7.33854,4.03062 10.31646,6.84556 10.31646,9.75183 0,4.30678 -1.64472,6.14899 -2.6192,2.9337 -0.77363,-2.55257 -6.02644,-9.24675 -7.66348,-9.76632 -1.91954,-0.60923 -5.96246,1.52045 -5.96036,3.13973 7.4e-4,0.70028 1.49832,5.21556 3.32758,10.03395 3.99669,10.52758 4.65876,13.81659 3.05002,15.15172 -1.5598,1.29453 -2.68728,0.42429 -2.68728,-2.07416 0,-4.198 -5.07844,-12.64273 -11.38327,-18.92875 -7.93359,-7.90991 -13.72216,-10.5431 -13.72216,-6.24211 0,1.15729 1.30241,2.13154 5.53572,4.14092 3.04464,1.44517 6.03514,3.34062 6.64555,4.2121 2.11028,3.01284 0.90835,6.92552 -1.5107,4.91788 -1.28205,-1.064 -8.12814,-0.59259 -9.36564,0.64491 -0.95568,0.95568 -0.99227,3.23453 -0.19395,12.08097 0.42092,4.66431 0.32268,7.03908 -0.35931,8.68554 -0.92884,2.24242 -3.5811,3.60587 -5.14007,2.64237 -0.93582,-0.57837 -0.96197,-4.68968 -0.0589,-9.25588 0.93368,-4.72085 0.28856,-6.47695 -2.99475,-8.15197 -3.54193,-1.80695 -7.34613,-1.85553 -9.21723,-0.11769 -0.78729,0.73121 -1.96743,1.53402 -2.62254,1.78402 -0.89852,0.3429 -1.27689,1.79115 -1.5403,5.89566 -0.40524,6.31449 -1.87116,9.12794 -5.12883,9.84345 -1.21753,0.26741 -2.39105,0.30884 -2.60783,0.0921 -0.21677,-0.21678 0.12262,-2.43036 0.7542,-4.91907 1.35912,-5.35549 0.74492,-7.77503 -2.26412,-8.91907 -3.05612,-1.16193 -6.80572,-0.13081 -9.56754,2.63101 -2.41726,2.41727 -2.45231,2.54809 -2.45231,9.15485 0,7.74521 1.22889,11.66651 7.45429,23.78608 6.37113,12.40329 14.73899,19.84342 22.33941,19.86271 1.98917,0.005 4.15205,-0.80122 7.20596,-2.68619 6.7768,-4.18289 13.379,-4.13736 16.90948,0.11661 0.8523,1.02695 0.84407,1.31524 -0.0537,1.88337 -0.58307,0.36894 -1.98431,0.6759 -3.11388,0.68212 -2.42191,0.0133 -3.20123,1.47261 -1.99254,3.73106 0.76622,1.43169 1.30923,1.57699 4.67183,1.25014 2.09266,-0.20342 6.13903,-0.79511 8.99191,-1.31486 6.17219,-1.1245 8.07853,-0.74454 12.22314,2.43622 4.82778,3.70504 6.29096,6.01224 5.25492,8.28611 -1.23182,2.70355 -3.18569,2.49209 -2.63034,-0.28467 0.37685,-1.88427 0.076,-2.38637 -2.41825,-4.03606 -6.45878,-4.2718 -9.77458,-4.09373 -11.32638,0.60826 -1.03223,3.1277 -0.17759,5.07533 2.93295,6.68386 2.83608,1.46659 6.06167,7.02073 6.06167,10.43758 0,2.97722 -2.28253,5.91362 -4.06509,5.22958 -0.59776,-0.22937 -1.51893,-2.10307 -2.04708,-4.16376 -0.52818,-2.0607 -1.2736,-3.74672 -1.65654,-3.74672 -1.23184,0 -5.63642,3.025 -6.77827,4.65523 -2.6156,3.7343 -0.60117,8.42715 4.82103,11.23107 3.55556,1.83865 7.03963,1.13973 18.31125,-3.67329 11.51516,-4.91701 14.11835,-5.50819 16.7273,-3.79874 2.16168,1.41638 2.61368,3.84951 0.5681,3.05814 -4.47212,-1.73012 -6.1587,-1.16041 -7.02357,2.37249 -0.34567,1.41201 -0.11229,1.65744 1.55474,1.63509 1.0788,-0.0145 3.95512,-0.50769 6.39183,-1.09606 6.22137,-1.50221 11.35101,-1.38854 13.92517,0.30857 2.71265,1.78841 4.89284,5.10785 4.89903,7.45902 0.004,1.73561 -0.17171,1.65248 -2.95651,-1.39404 l -2.96138,-3.2397 -4.29142,0.38914 c -3.71863,0.33719 -10.46088,2.84658 -10.46088,3.89341 0,0.19628 0.66455,1.59678 1.47679,3.11224 1.75912,3.28215 1.89081,6.84952 0.36197,9.80596 -1.08605,2.1002 -1.05842,2.18499 1.07093,3.28611 3.44822,1.78315 5.3817,1.36589 10.06815,-2.17281 2.40594,-1.81671 4.76854,-3.31196 5.25022,-3.32277 0.48167,-0.0109 3.57485,1.03681 6.87372,2.32808 5.3149,2.08041 6.27224,2.24858 8.40659,1.47679 9.011,-3.25842 25.29466,4.27298 22.87452,10.57976 -0.30287,0.78927 -1.12601,-0.0369 -2.75249,-2.76258 -1.42219,-2.38334 -2.91226,-3.97342 -3.84939,-4.10774 -1.22851,-0.17609 -8.22372,4.1645 -11.57051,7.17962 -0.30538,0.27511 0.95173,2.64027 2.79357,5.25592 4.39297,6.23857 5.86453,10.9919 4.45059,14.37595 -0.93964,2.24885 -3.77038,4.63136 -4.56206,3.83967 -0.18208,-0.18208 0.0193,-1.89416 0.44741,-3.80464 1.48331,-6.61887 -2.28202,-10.01024 -11.11639,-10.01233 -5.39674,-0.001 -12.37582,1.76408 -12.95652,3.27734 -0.20751,0.54077 0.30825,2.26228 1.14614,3.82559 1.66097,3.09901 2.03065,8.00158 0.66693,8.84441 -0.51197,0.31641 -1.9801,-0.77992 -3.64972,-2.7254 -2.36215,-2.75246 -2.99916,-3.12858 -4.12767,-2.43722 -0.73395,0.44965 -1.42263,1.28034 -1.5304,1.84599 -0.10776,0.56565 2.64883,4.18327 6.12579,8.03915 9.75049,10.81314 12.37289,17.96322 7.57197,20.64526 -2.91056,1.626 -3.65127,0.43191 -4.18466,-6.746 l -0.45641,-6.14205 -4.25727,-1.46576 c -3.11681,-1.07311 -4.60034,-1.2622 -5.53796,-0.70586 -0.70438,0.41794 -2.77594,3.70655 -4.60347,7.30801 -3.49193,6.88145 -6.68983,10.25179 -8.24841,8.69321 -0.655,-0.65501 -0.56632,-1.87985 0.37139,-5.12984 1.9943,-6.91192 1.9295,-10.85861 -0.19698,-11.99667 -1.93865,-1.03753 -4.41629,-0.0146 -9.83992,4.06238 -6.726,5.05602 -8.48551,4.25292 -5.45875,-2.49159 3.59329,-8.00691 3.03143,-13.0134 -1.86297,-16.60024 l -1.9762,-1.44824 -3.93096,3.33154 c -4.19196,3.55274 -7.92771,5.73633 -9.8139,5.73633 -0.964,0 -0.86194,-0.58429 0.61272,-3.50738 0.97318,-1.92906 2.3805,-5.4558 3.12737,-7.83721 l 1.35794,-4.32984 -1.66841,-1.351 c -2.5106,-2.03296 -9.68914,-4.55655 -13.26424,-4.663 -3.92963,-0.117 -4.77865,0.98278 -4.29664,5.56565 0.49111,4.66943 -0.68865,8.61492 -2.87367,9.61049 -2.66233,1.21304 -4.06356,0.3021 -4.06356,-2.64174 0,-3.0236 -1.5956,-4.87548 -4.20079,-4.87548 -1.90657,0 -4.39951,2.24401 -9.85975,8.8752 -2.34202,2.84426 -2.84303,3.11917 -4.7926,2.62986 l -2.17717,-0.54644 2.56669,-2.09482 2.5667,-2.09484 -1.37564,-4.04704 c -2.08068,-6.12128 -2.18742,-6.20788 -4.86986,-3.95076 -2.65698,2.23571 -3.86627,2.44041 -5.16589,0.87446 -0.73925,-0.89073 -0.55118,-1.51553 1.01718,-3.37942 2.09233,-2.48659 2.33411,-3.71952 1.15972,-5.91388 -1.18722,-2.21834 -2.1892,-1.68919 -2.1892,1.15614 0,2.4676 -0.11829,2.58438 -2.61784,2.58438 -2.58989,0 -2.61269,-0.0275 -2.13498,-2.57393 l 0.48288,-2.57394 -2.48,0.82494 c -4.33367,1.44152 -4.48426,1.83825 -4.48376,11.81237 7.3e-4,14.61237 1.14256,16.81456 11.21287,21.62571 6.97255,3.33118 11.74602,3.56991 15.79328,0.78985 1.47808,-1.01529 3.89677,-2.67668 5.37485,-3.69198 1.47808,-1.01529 3.4973,-1.84598 4.48717,-1.84598 2.46474,0 5.78609,3.52538 6.93541,7.36145 0.8684,2.89844 0.81045,3.43656 -0.65897,6.11917 l -1.61109,2.94128 1.46398,2.05597 c 0.99499,1.39734 1.46397,3.25042 1.46397,5.78459 v 3.72861 l 3.87658,-1.80481 c 5.75742,-2.68046 9.44948,-2.4509 13.06124,0.8121 5.39909,4.87775 7.51837,12.2543 4.56761,15.89834 l -1.38483,1.71019 -0.41366,-2.18218 c -0.22751,-1.2002 -0.61579,-3.72224 -0.86285,-5.60452 -0.55259,-4.21011 -2.25498,-5.86696 -6.52248,-6.34797 -4.68746,-0.52834 -6.23423,0.56618 -6.76642,4.78806 -0.71552,5.67616 -1.83271,9.04342 -3.00044,9.04342 -0.62947,0 -1.07796,-0.69967 -1.07796,-1.68169 0,-2.30877 -1.99718,-4.96386 -3.73384,-4.96386 -2.05702,0 -1.84957,2.73894 0.46548,6.14585 3.09863,4.56004 4.71272,8.77755 4.71272,12.31402 0,3.37917 -2.53528,10.23114 -3.44792,9.3185 -0.27529,-0.27529 -0.55479,-2.77528 -0.62113,-5.55554 -0.12736,-5.33824 -1.0372,-7.29435 -4.6659,-10.03149 -2.44494,-1.84422 -9.69249,-2.52665 -9.69249,-0.91264 0,0.61823 -0.99247,3.01076 -2.20548,5.31674 l -2.20549,4.19269 2.02089,-0.4334 c 1.93682,-0.41538 2.10631,-0.20482 4.07465,5.06249 3.56939,9.55167 9.5484,16.32905 18.61129,21.0964 l 4.22114,2.22045 -2.84396,-0.0761 c -1.56418,-0.0419 -6.06161,-0.51496 -9.99428,-1.05136 z"
       id="path951"
       inkscape:connector-curvature="0"
       transform="scale(0.26458333)" />
  </g>
  <g
     inkscape:groupmode="layer"
     id="layer6"
     inkscape:label="Layer 5"
     style="display:inline"
     sodipodi:insensitive="true"
     transform="translate(-32.311876,-28.210491)">
    <path
       id="path946"
       style="display:inline;opacity:1;fill:none;fill-opacity:1;stroke:#f4d35e;stroke-width:30;stroke-miterlimit:4;stroke-dasharray:none;stroke-opacity:1"
       d="M 599.14805,430.17105 A 208.70993,206.83304 0 0 1 417.41987,535.2884 208.70993,206.83304 0 0 1 208.70993,328.45537 208.70993,206.83304 0 0 1 316.42663,147.45013"
       transform="scale(0.26458333)"
       inkscape:connector-curvature="0" />
  </g>
</svg>
